<svg width="38" height="38" viewBox="0 0 38 38" fill="none" xmlns="http://www.w3.org/2000/svg">
<path d="M16.8994 29.8303H15.4301C15.2962 29.8303 15.1677 29.7771 15.0731 29.6824C14.9784 29.5877 14.9252 29.4593 14.9252 29.3253C14.9252 29.1914 14.9784 29.063 15.0731 28.9683C15.1677 28.8736 15.2962 28.8204 15.4301 28.8204H16.8994C17.0333 28.8204 17.1617 28.8736 17.2564 28.9683C17.3511 29.063 17.4043 29.1914 17.4043 29.3253C17.4043 29.4593 17.3511 29.5877 17.2564 29.6824C17.1617 29.7771 17.0333 29.8303 16.8994 29.8303Z" fill="#FAFBFC"/>
<path d="M26.4472 29.8301H25.4677C25.3338 29.8301 25.2054 29.7769 25.1107 29.6822C25.016 29.5875 24.9628 29.4591 24.9628 29.3252C24.9628 29.1913 25.016 29.0628 25.1107 28.9682C25.2054 28.8735 25.3338 28.8203 25.4677 28.8203H25.9423V25.2657C25.9467 24.6086 25.775 23.9622 25.445 23.394C25.1223 22.8355 24.6622 22.3688 24.1084 22.0382C23.5546 21.7076 22.9254 21.5241 22.2807 21.5051C21.1775 22.1071 19.9409 22.4225 18.6842 22.4225C17.4275 22.4225 16.1909 22.1071 15.0877 21.5051C14.4427 21.5241 13.8132 21.7073 13.2587 22.0374C12.7042 22.3674 12.243 22.8335 11.9189 23.3915C11.5886 23.9602 11.4167 24.607 11.421 25.2647V28.8193H11.8956C12.0296 28.8193 12.158 28.8725 12.2527 28.9671C12.3474 29.0618 12.4006 29.1903 12.4006 29.3242C12.4006 29.4581 12.3474 29.5865 12.2527 29.6812C12.158 29.7759 12.0296 29.8291 11.8956 29.8291H10.9161C10.7822 29.8291 10.6538 29.7759 10.5591 29.6812C10.4644 29.5865 10.4112 29.4581 10.4112 29.3242V25.2657C10.4092 24.4307 10.6278 23.6099 11.0449 22.8865C11.4651 22.1602 12.0687 21.5569 12.7953 21.1371C13.5219 20.7173 14.346 20.4956 15.1852 20.4943C15.2906 20.4943 15.3945 20.5198 15.4881 20.5685C16.4629 21.1225 17.565 21.4137 18.6862 21.4137C19.8075 21.4137 20.9095 21.1225 21.8843 20.5685C21.9635 20.5205 22.0543 20.4951 22.1469 20.4953C22.9915 20.4923 23.822 20.712 24.5547 21.1322C25.2874 21.5523 25.8964 22.1581 26.3205 22.8886C26.7373 23.6117 26.9557 24.4321 26.9536 25.2667V29.3262C26.9535 29.3925 26.9403 29.4582 26.9148 29.5195C26.8893 29.5807 26.8519 29.6363 26.8049 29.6831C26.7578 29.7299 26.702 29.767 26.6407 29.7922C26.5793 29.8174 26.5136 29.8303 26.4472 29.8301Z" fill="#FAFBFC"/>
<path d="M21.9334 29.8303H20.4338C20.2999 29.8303 20.1715 29.7771 20.0768 29.6824C19.9821 29.5877 19.9289 29.4593 19.9289 29.3253C19.9289 29.1914 19.9821 29.063 20.0768 28.9683C20.1715 28.8736 20.2999 28.8204 20.4338 28.8204H21.9334C22.0673 28.8204 22.1957 28.8736 22.2904 28.9683C22.3851 29.063 22.4383 29.1914 22.4383 29.3253C22.4383 29.4593 22.3851 29.5877 22.2904 29.6824C22.1957 29.7771 22.0673 29.8303 21.9334 29.8303Z" fill="#FAFBFC"/>
<path d="M35.8488 29.8303H25.4678C25.3339 29.8303 25.2055 29.7771 25.1108 29.6824C25.0161 29.5877 24.9629 29.4593 24.9629 29.3254C24.9629 29.1914 25.0161 29.063 25.1108 28.9683C25.2055 28.8736 25.3339 28.8204 25.4678 28.8204H35.3439V26.1899C35.3435 25.467 35.0636 24.7724 34.5626 24.2514C34.0616 23.7303 33.3785 23.4233 32.6562 23.3947C31.7972 23.8729 30.8285 24.1193 29.8454 24.1096C28.8639 24.1212 27.8965 23.8749 27.0401 23.3952C26.7086 23.4074 26.382 23.4788 26.0757 23.6062C26.0143 23.6329 25.9482 23.6471 25.8813 23.648C25.8143 23.6489 25.7479 23.6365 25.6858 23.6114C25.6237 23.5864 25.5672 23.5493 25.5196 23.5022C25.4719 23.4552 25.4342 23.3991 25.4084 23.3373C25.3827 23.2755 25.3695 23.2092 25.3696 23.1422C25.3697 23.0753 25.3831 23.009 25.4091 22.9473C25.4351 22.8856 25.4731 22.8297 25.5208 22.7828C25.5686 22.7359 25.6253 22.699 25.6874 22.6742C26.1472 22.4818 26.6407 22.3828 27.1391 22.3828C27.2447 22.3825 27.3488 22.4083 27.442 22.458C28.1796 22.8656 29.0085 23.0793 29.8512 23.0793C30.6939 23.0793 31.5228 22.8656 32.2604 22.458C32.3396 22.4096 32.4306 22.3839 32.5235 22.3838C33.025 22.3818 33.522 22.4787 33.986 22.669C34.45 22.8593 34.872 23.1392 35.2277 23.4927C35.5835 23.8462 35.866 24.2663 36.0593 24.7292C36.2525 25.192 36.3525 25.6883 36.3537 26.1899V29.3254C36.3537 29.4593 36.3005 29.5877 36.2058 29.6824C36.1111 29.7771 35.9827 29.8303 35.8488 29.8303Z" fill="#FAFBFC"/>
<path d="M11.8957 29.8303H1.51474C1.38083 29.8303 1.2524 29.7771 1.15771 29.6824C1.06302 29.5877 1.00983 29.4593 1.00983 29.3254V26.1899C1.01023 25.1812 1.41076 24.2138 2.12354 23.5001C2.83632 22.7864 3.80313 22.3846 4.81182 22.3828C4.9176 22.3824 5.02178 22.4086 5.11477 22.4591C5.85218 22.8663 6.68081 23.0799 7.5232 23.0799C8.36559 23.0799 9.19422 22.8663 9.93163 22.4591C10.011 22.4105 10.1022 22.3848 10.1952 22.3848C10.7037 22.3818 11.2076 22.4809 11.6771 22.6762C11.7393 22.701 11.7959 22.7379 11.8437 22.7848C11.8915 22.8317 11.9295 22.8876 11.9554 22.9493C11.9814 23.011 11.9948 23.0773 11.995 23.1443C11.9951 23.2112 11.9819 23.2775 11.9561 23.3393C11.9304 23.4011 11.8926 23.4572 11.845 23.5043C11.7974 23.5513 11.7409 23.5884 11.6788 23.6135C11.6167 23.6385 11.5502 23.6509 11.4833 23.65C11.4163 23.6491 11.3502 23.6349 11.2888 23.6082C10.9843 23.4808 10.6594 23.4091 10.3295 23.3967C9.46349 23.8516 8.49991 24.0893 7.52168 24.0893C6.54346 24.0893 5.57988 23.8516 4.71387 23.3967C3.99124 23.4249 3.30748 23.7313 2.80542 24.2518C2.30336 24.7723 2.02183 25.4667 2.01965 26.1899V28.8205H11.8957C12.0297 28.8205 12.1581 28.8737 12.2528 28.9683C12.3475 29.063 12.4007 29.1915 12.4007 29.3254C12.4007 29.4593 12.3475 29.5877 12.2528 29.6824C12.1581 29.7771 12.0297 29.8303 11.8957 29.8303Z" fill="#FAFBFC"/>
<path d="M18.7594 19.5598C17.9549 19.56 17.1627 19.3616 16.4533 18.9821C15.7438 18.6026 15.1391 18.0538 14.6928 17.3844C14.2465 16.715 13.9724 15.9457 13.8949 15.1449C13.8174 14.3441 13.9389 13.5365 14.2485 12.7939C14.2729 12.7313 14.3096 12.6742 14.3564 12.6259C14.4032 12.5777 14.4591 12.5392 14.5209 12.5129C14.5828 12.4865 14.6493 12.4727 14.7165 12.4724C14.7837 12.4721 14.8503 12.4852 14.9124 12.5109C14.9745 12.5367 15.0308 12.5746 15.078 12.6224C15.1253 12.6702 15.1625 12.7269 15.1876 12.7893C15.2126 12.8517 15.2249 12.9184 15.2238 12.9857C15.2227 13.0529 15.2082 13.1192 15.1811 13.1807C14.9601 13.7101 14.8592 14.2819 14.8859 14.8549C14.9125 15.4279 15.066 15.9879 15.3351 16.4945C15.6043 17.0011 15.9826 17.4416 16.4426 17.7843C16.9026 18.1271 17.4329 18.3635 17.9953 18.4765C18.5577 18.5896 19.1382 18.5764 19.6949 18.438C20.2516 18.2996 20.7707 18.0394 21.2147 17.6762C21.6587 17.313 22.0166 16.8558 22.2626 16.3375C22.5086 15.8193 22.6365 15.2529 22.6371 14.6793C22.6371 14.552 22.6371 14.4268 22.6422 14.3051C22.6462 14.1173 22.6498 13.931 22.6422 13.7371C22.6399 13.6708 22.6508 13.6047 22.6741 13.5426C22.6973 13.4805 22.7326 13.4235 22.7779 13.3751C22.8232 13.3266 22.8776 13.2875 22.938 13.26C22.9984 13.2326 23.0636 13.2173 23.1299 13.215C23.1962 13.2128 23.2623 13.2236 23.3245 13.2469C23.3866 13.2702 23.4435 13.3055 23.492 13.3508C23.5405 13.3961 23.5796 13.4505 23.607 13.5109C23.6345 13.5713 23.6498 13.6365 23.652 13.7028C23.6591 13.9153 23.6555 14.1193 23.652 14.3253C23.6495 14.442 23.647 14.5591 23.647 14.6788C23.6444 15.9736 23.1285 17.2147 22.2122 18.1297C21.296 19.0447 20.0543 19.559 18.7594 19.5598Z" fill="#FAFBFC"/>
<path d="M23.1482 14.2223C23.0474 14.2225 22.9488 14.1924 22.8652 14.1359C22.7816 14.0795 22.7168 13.9993 22.6792 13.9058C22.4989 13.4559 21.9092 12.3062 21.1882 11.8806C20.3803 12.4738 17.7997 14.1643 15.2903 13.6755C13.873 13.3988 12.7314 12.4844 11.8978 10.9581C11.8494 10.8695 11.8286 10.7685 11.8382 10.6681C11.8478 10.5677 11.8872 10.4724 11.9515 10.3946C12.0157 10.3168 12.1017 10.26 12.1986 10.2315C12.2954 10.2031 12.3985 10.2043 12.4946 10.235C12.9806 10.3344 13.4847 10.2974 13.951 10.1281C14.4173 9.95878 14.8277 9.66377 15.1368 9.27571C15.2378 9.17473 17.1473 7.35704 19.2447 7.5484C19.7183 7.59707 20.1765 7.74365 20.5903 7.97886C21.0041 8.21407 21.3645 8.53276 21.6486 8.9147C22.037 8.88733 22.4265 8.94907 22.7874 9.0952C23.1483 9.24134 23.471 9.46801 23.7309 9.7579C24.4125 10.6208 24.3742 12.0159 23.6168 13.9058C23.5792 13.9993 23.5145 14.0794 23.431 14.1358C23.3475 14.1922 23.249 14.2224 23.1482 14.2223ZM13.3186 11.2938C13.8445 12.0087 14.6155 12.5045 15.4842 12.6864C17.9875 13.1782 20.7751 10.9293 20.8029 10.9066C20.8696 10.852 20.9492 10.8154 21.034 10.8003C21.1189 10.7852 21.2062 10.7921 21.2876 10.8202C22.0349 11.1527 22.6533 11.72 23.0488 12.436C23.2941 11.4953 23.2593 10.7985 22.9412 10.3921C22.4828 9.80688 21.4951 9.93765 21.485 9.93765C21.3936 9.95086 21.3003 9.93874 21.2153 9.90259C21.1303 9.86645 21.0568 9.80767 21.0029 9.73265C20.8028 9.41014 20.5327 9.13678 20.2127 8.93287C19.8926 8.72895 19.5307 8.5997 19.1539 8.55469C17.5174 8.40676 15.8719 9.96845 15.8568 9.98309C15.2088 10.7273 14.3007 11.1955 13.3186 11.2918V11.2938Z" fill="#FAFBFC"/>
<path d="M29.906 21.5327C29.265 21.5336 28.6337 21.376 28.0684 21.0739C27.503 20.7718 27.0212 20.3347 26.6656 19.8013C26.3101 19.268 26.0919 18.655 26.0306 18.017C25.9693 17.3789 26.0666 16.7356 26.314 16.1443C26.3381 16.0812 26.3745 16.0235 26.4212 15.9747C26.4679 15.9259 26.5239 15.887 26.5859 15.8603C26.648 15.8335 26.7147 15.8195 26.7822 15.819C26.8498 15.8185 26.9167 15.8316 26.9791 15.8574C27.0415 15.8832 27.0981 15.9213 27.1455 15.9694C27.1929 16.0175 27.2302 16.0747 27.2551 16.1374C27.2801 16.2002 27.2922 16.2673 27.2907 16.3349C27.2892 16.4024 27.2742 16.4689 27.2466 16.5305C27.0823 16.924 27.0073 17.3489 27.027 17.7748C27.0468 18.2007 27.1608 18.617 27.3608 18.9935C27.5608 19.37 27.8419 19.6975 28.1838 19.9522C28.5257 20.207 28.9198 20.3828 29.3378 20.4668C29.7558 20.5509 30.1872 20.5411 30.601 20.4383C31.0148 20.3355 31.4006 20.1422 31.7306 19.8722C32.0606 19.6023 32.3267 19.2625 32.5095 18.8773C32.6924 18.4922 32.7875 18.0712 32.788 17.6449C32.788 17.5439 32.788 17.4495 32.7921 17.3535C32.7951 17.2102 32.7981 17.0688 32.7921 16.9208C32.7898 16.8546 32.8005 16.7885 32.8238 16.7264C32.847 16.6643 32.8823 16.6074 32.9275 16.5589C32.9728 16.5104 33.0271 16.4713 33.0875 16.4438C33.1478 16.4164 33.213 16.401 33.2793 16.3988C33.3459 16.395 33.4126 16.4048 33.4753 16.4275C33.5381 16.4502 33.5956 16.4854 33.6444 16.5309C33.6931 16.5764 33.7322 16.6314 33.7592 16.6924C33.7862 16.7534 33.8005 16.8193 33.8014 16.886C33.8069 17.0526 33.8014 17.2122 33.8014 17.3737C33.8014 17.4626 33.7973 17.553 33.7973 17.6449C33.7956 18.6761 33.3849 19.6645 32.6554 20.3933C31.926 21.1222 30.9372 21.5319 29.906 21.5327Z" fill="#FAFBFC"/>
<path d="M33.2974 17.408C33.1966 17.408 33.0981 17.3779 33.0146 17.3214C32.9311 17.265 32.8664 17.1849 32.8288 17.0914C32.6047 16.5251 32.2474 16.0211 31.7872 15.6221C31.0879 16.124 29.1258 17.3585 27.2026 16.9854C26.6177 16.8555 26.0703 16.5935 25.6023 16.2194C25.1342 15.8454 24.758 15.3692 24.5023 14.8274C24.4539 14.7388 24.4332 14.6378 24.4428 14.5374C24.4523 14.4369 24.4918 14.3417 24.556 14.2639C24.6202 14.1861 24.7063 14.1293 24.8031 14.1008C24.8999 14.0724 25.003 14.0736 25.0991 14.1043C25.4541 14.1737 25.8213 14.1439 26.1604 14.0183C26.4996 13.8928 26.7976 13.6762 27.0218 13.3924C27.1062 13.3106 28.6204 11.8671 30.2916 12.0216C30.6637 12.0589 31.0242 12.1717 31.3512 12.3532C31.6781 12.5346 31.9646 12.7809 32.1931 13.0768C32.5018 13.0627 32.8096 13.118 33.094 13.2386C33.3785 13.3592 33.6322 13.542 33.8366 13.7736C34.392 14.4749 34.3668 15.5913 33.7649 17.0929C33.7274 17.1863 33.6628 17.2664 33.5793 17.3228C33.4959 17.3792 33.3976 17.4094 33.2969 17.4095L33.2974 17.408ZM25.9206 15.1167C26.2983 15.5683 26.8191 15.8772 27.3965 15.9922C29.2818 16.3598 31.3919 14.6577 31.4126 14.6406C31.4793 14.586 31.5588 14.5494 31.6437 14.5343C31.7285 14.5192 31.8158 14.526 31.8973 14.5542C32.4198 14.7734 32.863 15.1468 33.1676 15.6246C33.2327 15.4234 33.2557 15.2109 33.2351 15.0005C33.2145 14.79 33.1508 14.586 33.048 14.4012C32.7405 14.0079 32.0351 14.0932 32.028 14.0937C31.9367 14.1061 31.8438 14.0935 31.759 14.0575C31.6742 14.0214 31.6008 13.9631 31.5464 13.8887C31.401 13.6532 31.2046 13.4532 30.9716 13.3038C30.7386 13.1543 30.475 13.0592 30.2003 13.0253C29.1904 12.935 28.0847 13.7686 27.7423 14.0978C27.2695 14.6358 26.6265 14.9955 25.9206 15.1167Z" fill="#FAFBFC"/>
<path d="M7.57773 21.533C6.93674 21.5339 6.30548 21.3763 5.74014 21.0742C5.17479 20.7721 4.69291 20.335 4.33738 19.8016C3.98184 19.2683 3.7637 18.6553 3.70235 18.0172C3.64101 17.3792 3.73838 16.7359 3.98578 16.1446C4.03955 16.0247 4.13793 15.9305 4.26002 15.882C4.38211 15.8335 4.5183 15.8345 4.63967 15.8847C4.76105 15.935 4.85805 16.0306 4.91008 16.1512C4.96212 16.2719 4.96508 16.408 4.91835 16.5308C4.75403 16.9242 4.67903 17.3492 4.69878 17.7751C4.71853 18.201 4.83253 18.6172 5.03257 18.9938C5.2326 19.3703 5.51368 19.6977 5.85555 19.9525C6.19742 20.2073 6.59155 20.383 7.00955 20.4671C7.42754 20.5512 7.85897 20.5414 8.27275 20.4386C8.68653 20.3358 9.07234 20.1424 9.40237 19.8725C9.7324 19.6026 9.99843 19.2628 10.1813 18.8776C10.3641 18.4925 10.4592 18.0715 10.4598 17.6452C10.4598 17.5442 10.4598 17.4498 10.4638 17.3538C10.4638 17.2104 10.4699 17.0691 10.4638 16.9211C10.4615 16.8548 10.4723 16.7888 10.4955 16.7267C10.5188 16.6646 10.554 16.6076 10.5993 16.5592C10.6445 16.5107 10.6989 16.4716 10.7592 16.4441C10.8196 16.4166 10.8848 16.4013 10.951 16.399C11.0176 16.3958 11.084 16.4059 11.1466 16.4288C11.2091 16.4517 11.2664 16.4869 11.3151 16.5323C11.3637 16.5778 11.4028 16.6325 11.43 16.6933C11.4571 16.7541 11.4718 16.8197 11.4731 16.8863C11.4787 17.0529 11.4731 17.2125 11.4731 17.374C11.4731 17.4629 11.4691 17.5533 11.4691 17.6452C11.4674 18.6764 11.0567 19.6648 10.3272 20.3936C9.59771 21.1224 8.60892 21.5322 7.57773 21.533Z" fill="#FAFBFC"/>
<path d="M10.9692 17.4083C10.8684 17.4083 10.7699 17.3782 10.6864 17.3217C10.6029 17.2653 10.5382 17.1852 10.5006 17.0917C10.2766 16.5253 9.91933 16.0213 9.459 15.6224C8.7597 16.1243 6.79458 17.3578 4.8749 16.9857C4.28988 16.856 3.74232 16.594 3.27418 16.22C2.80604 15.8459 2.42974 15.3697 2.17413 14.8277C2.12575 14.7391 2.10501 14.6381 2.11458 14.5377C2.12415 14.4373 2.16359 14.342 2.22782 14.2642C2.29205 14.1864 2.37811 14.1296 2.47492 14.1011C2.57172 14.0727 2.67483 14.0739 2.77093 14.1046C3.12638 14.1742 3.49412 14.1443 3.83369 14.0183C4.17327 13.8924 4.47152 13.6752 4.69566 13.3907C4.77948 13.3089 6.29573 11.8654 7.96497 12.0199C8.33692 12.0576 8.69726 12.1709 9.02395 12.3527C9.35064 12.5344 9.63681 12.781 9.86495 13.0771C10.1736 13.063 10.4814 13.1183 10.7658 13.2389C11.0503 13.3595 11.304 13.5423 11.5084 13.7739C12.0638 14.4753 12.0386 15.5916 11.4367 17.0932C11.3992 17.1866 11.3346 17.2667 11.2512 17.3231C11.1677 17.3795 11.0694 17.4097 10.9687 17.4098L10.9692 17.4083ZM3.59243 15.117C3.97021 15.5685 4.49092 15.8774 5.06829 15.9925C6.95363 16.3591 9.06315 14.6575 9.08436 14.6424C9.15107 14.5878 9.23063 14.5512 9.31548 14.5361C9.40033 14.521 9.48763 14.5279 9.56908 14.556C10.0915 14.7752 10.5346 15.1484 10.8394 15.6259C10.9044 15.4248 10.9273 15.2124 10.9067 15.0021C10.8861 14.7917 10.8225 14.5878 10.7198 14.403C10.4128 14.0097 9.70692 14.0951 9.69934 14.0956C9.60812 14.1077 9.5153 14.0951 9.43063 14.0591C9.34596 14.023 9.27257 13.9648 9.21816 13.8906C9.07283 13.655 8.8764 13.4551 8.6434 13.3056C8.41041 13.1562 8.1468 13.061 7.87206 13.0272C6.86729 12.9368 5.75598 13.7704 5.41415 14.0996C4.94113 14.6371 4.29815 14.9962 3.59243 15.117Z" fill="#FAFBFC"/>
</svg>
