<svg width="32" height="32" viewBox="0 0 32 32" fill="none" xmlns="http://www.w3.org/2000/svg">
<path d="M18.2443 29.2498H16.96C16.8453 29.2498 16.7353 29.2042 16.6542 29.1231C16.5731 29.042 16.5276 28.932 16.5276 28.8173C16.5276 28.7026 16.5731 28.5926 16.6542 28.5115C16.7353 28.4304 16.8453 28.3849 16.96 28.3849H18.2443C18.359 28.3849 18.469 28.4304 18.5501 28.5115C18.6312 28.5926 18.6768 28.7026 18.6768 28.8173C18.6768 28.932 18.6312 29.042 18.5501 29.1231C18.469 29.2042 18.359 29.2498 18.2443 29.2498Z" fill="#FAFBFC"/>
<path d="M30.7027 29.2497H21.2714C21.1567 29.2497 21.0467 29.2041 20.9656 29.123C20.8845 29.0419 20.8389 28.9319 20.8389 28.8172C20.8389 28.7026 20.8845 28.5926 20.9656 28.5115C21.0467 28.4304 21.1567 28.3848 21.2714 28.3848H30.0805L25.6692 16.5266L23.3393 18.4293C23.2933 18.4667 23.2401 18.4941 23.1831 18.51C23.126 18.526 23.0663 18.53 23.0076 18.5219C22.949 18.5138 22.8926 18.4937 22.842 18.4629C22.7914 18.4321 22.7477 18.3912 22.7135 18.3429L16.7256 9.91778L11.3955 21.0516C11.3667 21.1117 11.3245 21.1643 11.2721 21.2054C11.2196 21.2464 11.1584 21.2748 11.0932 21.2883C11.028 21.3019 10.9606 21.3001 10.8961 21.2833C10.8317 21.2665 10.772 21.235 10.7217 21.1913L7.56759 18.4527L2.03245 28.3848H9.65191C9.7666 28.3848 9.87659 28.4304 9.95769 28.5115C10.0388 28.5926 10.0843 28.7026 10.0843 28.8172C10.0843 28.9319 10.0388 29.0419 9.95769 29.123C9.87659 29.2041 9.7666 29.2497 9.65191 29.2497H1.29732C1.22193 29.2497 1.14785 29.2301 1.08241 29.1926C1.01697 29.1552 0.962448 29.1013 0.924251 29.0364C0.886054 28.9714 0.865508 28.8975 0.864652 28.8222C0.863796 28.7468 0.882658 28.6725 0.919369 28.6066L7.07288 17.5666C7.10419 17.5104 7.14766 17.4619 7.20012 17.4246C7.25257 17.3873 7.31269 17.3622 7.37608 17.3511C7.43948 17.34 7.50455 17.3432 7.56656 17.3604C7.62857 17.3776 7.68595 17.4085 7.7345 17.4508L10.8606 20.166L16.2629 8.88167C16.2954 8.81377 16.3451 8.75552 16.407 8.71269C16.4689 8.66986 16.5409 8.64393 16.6159 8.63746C16.6909 8.631 16.7663 8.64422 16.8346 8.67583C16.9029 8.70743 16.9618 8.75633 17.0054 8.81767L23.1507 17.4663L25.5905 15.475C25.6438 15.4315 25.7066 15.4014 25.7739 15.3871C25.8411 15.3729 25.9107 15.3748 25.9771 15.3928C26.0434 15.4108 26.1045 15.4444 26.1552 15.4907C26.206 15.537 26.245 15.5948 26.269 15.6592L31.1079 28.6672C31.1321 28.7325 31.1401 28.8028 31.1313 28.8719C31.1225 28.941 31.0971 29.007 31.0573 29.0642C31.0175 29.1214 30.9645 29.1681 30.9028 29.2004C30.841 29.2327 30.7724 29.2496 30.7027 29.2497Z" fill="#FAFBFC"/>
<path d="M13.933 29.2498H12.679C12.5643 29.2498 12.4543 29.2042 12.3732 29.1231C12.2921 29.042 12.2465 28.932 12.2465 28.8173C12.2465 28.7026 12.2921 28.5926 12.3732 28.5115C12.4543 28.4304 12.5643 28.3849 12.679 28.3849H13.933C14.0477 28.3849 14.1577 28.4304 14.2388 28.5115C14.3199 28.5926 14.3654 28.7026 14.3654 28.8173C14.3654 28.932 14.3199 29.042 14.2388 29.1231C14.1577 29.2042 14.0477 29.2498 13.933 29.2498Z" fill="#FAFBFC"/>
<path d="M13.5425 15.9957C13.4394 15.9958 13.3397 15.9592 13.2613 15.8924C13.1829 15.8256 13.1309 15.733 13.1146 15.6313C13.0984 15.5296 13.1191 15.4254 13.1728 15.3375C13.2266 15.2496 13.31 15.1838 13.408 15.152L16.6261 14.0973C16.8814 14.0138 17.1584 14.027 17.4045 14.1345L18.2893 14.5206C18.3297 14.5384 18.3743 14.5442 18.4179 14.5374C18.4616 14.5306 18.5023 14.5114 18.5353 14.4821L19.7029 13.4478C19.7455 13.4101 19.7951 13.3813 19.8488 13.3628C19.9026 13.3444 19.9594 13.3367 20.0161 13.3402C20.0729 13.3437 20.1283 13.3583 20.1794 13.3833C20.2305 13.4083 20.2761 13.443 20.3137 13.4856C20.3513 13.5282 20.3802 13.5778 20.3987 13.6315C20.4171 13.6853 20.4248 13.7421 20.4213 13.7988C20.4178 13.8556 20.4031 13.911 20.3782 13.9621C20.3532 14.0132 20.3185 14.0588 20.2759 14.0964L19.1083 15.1308C18.9515 15.2688 18.7586 15.3593 18.5522 15.3917C18.3459 15.4242 18.1345 15.3973 17.9429 15.3141L17.0586 14.928C17.0064 14.9049 16.9475 14.9021 16.8934 14.9202L13.6752 15.9758C13.6323 15.9893 13.5875 15.996 13.5425 15.9957Z" fill="#FAFBFC"/>
<path d="M16.653 9.5022C16.5383 9.5022 16.4283 9.45664 16.3472 9.37554C16.2661 9.29444 16.2205 9.18445 16.2205 9.06977V3.18133C16.2205 3.06665 16.2661 2.95665 16.3472 2.87556C16.4283 2.79446 16.5383 2.7489 16.653 2.7489C16.7676 2.7489 16.8776 2.79446 16.9587 2.87556C17.0398 2.95665 17.0854 3.06665 17.0854 3.18133V9.06977C17.0854 9.18445 17.0398 9.29444 16.9587 9.37554C16.8776 9.45664 16.7676 9.5022 16.653 9.5022Z" fill="#FAFBFC"/>
<path d="M20.6997 6.61872H16.653C16.5383 6.61872 16.4283 6.57316 16.3472 6.49207C16.2661 6.41097 16.2205 6.30098 16.2205 6.18629V3.62543C16.2205 3.51074 16.2661 3.40075 16.3472 3.31965C16.4283 3.23855 16.5383 3.19299 16.653 3.19299H20.6997C20.8144 3.19299 20.9243 3.23855 21.0054 3.31965C21.0865 3.40075 21.1321 3.51074 21.1321 3.62543V6.18629C21.1321 6.30098 21.0865 6.41097 21.0054 6.49207C20.9243 6.57316 20.8144 6.61872 20.6997 6.61872ZM17.0854 5.75386H20.2672V4.05786H17.0854V5.75386Z" fill="#FAFBFC"/>
</svg>
