<svg width="33" height="33" viewBox="0 0 33 33" fill="none" xmlns="http://www.w3.org/2000/svg">
<g clip-path="url(#clip0_1_469)">
<path d="M17.3322 32.139H16.0187C15.9014 32.139 15.7889 32.0924 15.706 32.0095C15.623 31.9266 15.5764 31.8141 15.5764 31.6968C15.5764 31.5795 15.623 31.467 15.706 31.3841C15.7889 31.3011 15.9014 31.2545 16.0187 31.2545H17.3322C17.4495 31.2545 17.562 31.3011 17.6449 31.3841C17.7278 31.467 17.7744 31.5795 17.7744 31.6968C17.7744 31.8141 17.7278 31.9266 17.6449 32.0095C17.562 32.0924 17.4495 32.139 17.3322 32.139Z" fill="#FAFBFC"/>
<path d="M30.516 32.139H20.428C20.3107 32.139 20.1982 32.0925 20.1153 32.0095C20.0323 31.9266 19.9858 31.8141 19.9858 31.6968C19.9858 31.5795 20.0323 31.467 20.1153 31.3841C20.1982 31.3011 20.3107 31.2545 20.428 31.2545H30.516C30.6333 31.2545 30.7458 31.2079 30.8287 31.125C30.9116 31.0421 30.9582 30.9296 30.9582 30.8123V10.7911H1.76904V30.8123C1.76904 30.9296 1.81564 31.0421 1.89858 31.125C1.98152 31.2079 2.09401 31.2545 2.2113 31.2545H8.54447C8.66177 31.2545 8.77426 31.3011 8.8572 31.3841C8.94014 31.467 8.98673 31.5795 8.98673 31.6968C8.98673 31.8141 8.94014 31.9266 8.8572 32.0095C8.77426 32.0925 8.66177 32.139 8.54447 32.139H2.2113C1.85942 32.139 1.52195 31.9993 1.27313 31.7504C1.02431 31.5016 0.884521 31.1642 0.884521 30.8123V10.3489C0.884521 10.2316 0.931117 10.1191 1.01406 10.0362C1.097 9.95321 1.20949 9.90662 1.32678 9.90662H31.4005C31.5178 9.90662 31.6303 9.95321 31.7132 10.0362C31.7962 10.1191 31.8428 10.2316 31.8428 10.3489V30.8123C31.8428 31.1642 31.703 31.5016 31.4541 31.7504C31.2053 31.9993 30.8679 32.139 30.516 32.139Z" fill="#FAFBFC"/>
<path d="M12.9228 32.139H11.6403C11.523 32.139 11.4105 32.0924 11.3275 32.0095C11.2446 31.9266 11.198 31.8141 11.198 31.6968C11.198 31.5795 11.2446 31.467 11.3275 31.3841C11.4105 31.3011 11.523 31.2545 11.6403 31.2545H12.9228C13.0401 31.2545 13.1526 31.3011 13.2356 31.3841C13.3185 31.467 13.3651 31.5795 13.3651 31.6968C13.3651 31.8141 13.3185 31.9266 13.2356 32.0095C13.1526 32.0924 13.0401 32.139 12.9228 32.139Z" fill="#FAFBFC"/>
<path d="M31.4005 10.7913H1.32678C1.20949 10.7913 1.097 10.7447 1.01406 10.6617C0.931117 10.5788 0.884521 10.4663 0.884521 10.349V5.04187C0.884521 4.68999 1.02431 4.35251 1.27313 4.10369C1.52195 3.85487 1.85942 3.71509 2.2113 3.71509H6.53219C6.64948 3.71509 6.76197 3.76168 6.84491 3.84462C6.92785 3.92756 6.97445 4.04005 6.97445 4.15735C6.97445 4.27464 6.92785 4.38713 6.84491 4.47007C6.76197 4.55301 6.64948 4.59961 6.53219 4.59961H2.2113C2.09401 4.59961 1.98152 4.6462 1.89858 4.72914C1.81564 4.81208 1.76904 4.92458 1.76904 5.04187V9.90674H30.9582V5.04187C30.9582 4.92458 30.9116 4.81208 30.8287 4.72914C30.7458 4.6462 30.6333 4.59961 30.516 4.59961H26.1951C26.0778 4.59961 25.9653 4.55301 25.8824 4.47007C25.7994 4.38713 25.7528 4.27464 25.7528 4.15735C25.7528 4.04005 25.7994 3.92756 25.8824 3.84462C25.9653 3.76168 26.0778 3.71509 26.1951 3.71509H30.516C30.8679 3.71509 31.2053 3.85487 31.4541 4.10369C31.703 4.35251 31.8428 4.68999 31.8428 5.04187V10.349C31.8428 10.4663 31.7962 10.5788 31.7132 10.6617C31.6303 10.7447 31.5178 10.7913 31.4005 10.7913Z" fill="#FAFBFC"/>
<path d="M23.2142 4.59961H9.513C9.39571 4.59961 9.28321 4.55301 9.20027 4.47007C9.11733 4.38713 9.07074 4.27464 9.07074 4.15735C9.07074 4.04005 9.11733 3.92756 9.20027 3.84462C9.28321 3.76168 9.39571 3.71509 9.513 3.71509H23.2142C23.3315 3.71509 23.444 3.76168 23.5269 3.84462C23.6099 3.92756 23.6565 4.04005 23.6565 4.15735C23.6565 4.27464 23.6099 4.38713 23.5269 4.47007C23.444 4.55301 23.3315 4.59961 23.2142 4.59961Z" fill="#FAFBFC"/>
<path d="M25.7904 7.13329H23.6202C23.3955 7.13294 23.18 7.04351 23.0211 6.88459C22.8622 6.72567 22.7728 6.51022 22.7724 6.28548V2.02872C22.7728 1.80398 22.8622 1.58853 23.0211 1.42961C23.18 1.27069 23.3955 1.18126 23.6202 1.18091H25.7904C26.0152 1.18114 26.2307 1.27054 26.3896 1.42949C26.5486 1.58843 26.638 1.80394 26.6382 2.02872V6.28548C26.638 6.51026 26.5486 6.72577 26.3896 6.88471C26.2307 7.04366 26.0152 7.13306 25.7904 7.13329ZM23.6569 6.24877H25.7537V2.06543H23.6569V6.24877Z" fill="#FAFBFC"/>
<path d="M9.10702 7.13329H6.93685C6.71207 7.13306 6.49656 7.04366 6.33761 6.88471C6.17867 6.72577 6.08927 6.51026 6.08904 6.28548V2.02872C6.08927 1.80394 6.17867 1.58843 6.33761 1.42949C6.49656 1.27054 6.71207 1.18114 6.93685 1.18091H9.10702C9.33177 1.18126 9.54721 1.27069 9.70613 1.42961C9.86505 1.58853 9.95449 1.80398 9.95484 2.02872V6.28548C9.95449 6.51022 9.86505 6.72567 9.70613 6.88459C9.54721 7.04351 9.33177 7.13294 9.10702 7.13329ZM6.97356 6.24877H9.07032V2.06543H6.97356V6.24877Z" fill="#FAFBFC"/>
<path d="M14.3138 17.3516H11.7964C11.5958 17.3513 11.4035 17.2715 11.2616 17.1297C11.1198 16.9878 11.04 16.7955 11.0397 16.5949V14.0775C11.0398 13.8769 11.1196 13.6844 11.2615 13.5426C11.4034 13.4007 11.5958 13.3209 11.7964 13.3208H14.3138C14.5144 13.3209 14.7068 13.4007 14.8487 13.5426C14.9906 13.6844 15.0704 13.8769 15.0705 14.0775V16.5949C15.0702 16.7955 14.9904 16.9878 14.8486 17.1297C14.7067 17.2715 14.5144 17.3513 14.3138 17.3516ZM11.9256 16.467H14.1873V14.2053H11.9242L11.9256 16.467Z" fill="#FAFBFC"/>
<path d="M20.9309 17.3516H18.4135C18.2129 17.3513 18.0206 17.2715 17.8787 17.1297C17.7368 16.9878 17.657 16.7955 17.6568 16.5949V14.0775C17.6569 13.8769 17.7367 13.6844 17.8786 13.5426C18.0205 13.4007 18.2129 13.3209 18.4135 13.3208H20.9309C21.1315 13.3209 21.3239 13.4007 21.4658 13.5426C21.6077 13.6844 21.6875 13.8769 21.6876 14.0775V16.5949C21.6873 16.7955 21.6075 16.9878 21.4657 17.1297C21.3238 17.2715 21.1315 17.3513 20.9309 17.3516ZM18.5427 16.467H20.8044V14.2053H18.5413L18.5427 16.467Z" fill="#FAFBFC"/>
<path d="M27.548 17.3516H25.0319C24.8313 17.3513 24.639 17.2715 24.4971 17.1297C24.3553 16.9878 24.2755 16.7955 24.2752 16.5949V14.0775C24.2754 13.8769 24.3551 13.6844 24.497 13.5426C24.6389 13.4007 24.8313 13.3209 25.0319 13.3208H27.5493C27.7497 13.3214 27.9417 13.4013 28.0833 13.5432C28.2248 13.685 28.3044 13.8771 28.3047 14.0775V16.5949C28.3043 16.7954 28.2245 16.9877 28.0827 17.1295C27.9408 17.2714 27.7486 17.3512 27.548 17.3516ZM25.1598 16.467H27.4202V14.2053H25.1584L25.1598 16.467Z" fill="#FAFBFC"/>
<path d="M7.69535 23.0965H5.17933C4.97875 23.0962 4.78648 23.0163 4.64464 22.8745C4.50281 22.7327 4.42297 22.5404 4.42262 22.3398V19.8225C4.42286 19.6218 4.50264 19.4294 4.64449 19.2875C4.78634 19.1456 4.97867 19.0657 5.17933 19.0653H7.69535C7.89605 19.0655 8.08845 19.1454 8.23032 19.2874C8.3722 19.4293 8.45194 19.6218 8.45206 19.8225V22.3398C8.45183 22.5404 8.37203 22.7328 8.23017 22.8746C8.08831 23.0165 7.89597 23.0963 7.69535 23.0965ZM5.30714 22.212H7.56887V19.9498H5.30714V22.212Z" fill="#FAFBFC"/>
<path d="M14.3138 23.0965H11.7964C11.5958 23.0963 11.4035 23.0165 11.2616 22.8746C11.1198 22.7328 11.04 22.5404 11.0397 22.3398V19.8225C11.0398 19.6218 11.1196 19.4293 11.2615 19.2874C11.4033 19.1454 11.5957 19.0655 11.7964 19.0653H14.3138C14.5145 19.0655 14.7069 19.1454 14.8487 19.2874C14.9906 19.4293 15.0704 19.6218 15.0705 19.8225V22.3398C15.0702 22.5404 14.9904 22.7328 14.8486 22.8746C14.7067 23.0165 14.5144 23.0963 14.3138 23.0965ZM11.9256 22.212H14.1873V19.9498H11.9242L11.9256 22.212Z" fill="#FAFBFC"/>
<path d="M20.9309 23.0965H18.4135C18.2129 23.0963 18.0206 23.0165 17.8787 22.8746C17.7368 22.7328 17.657 22.5404 17.6568 22.3398V19.8225C17.6569 19.6218 17.7367 19.4293 17.8786 19.2874C18.0204 19.1454 18.2128 19.0655 18.4135 19.0653H20.9309C21.1316 19.0655 21.324 19.1454 21.4658 19.2874C21.6077 19.4293 21.6875 19.6218 21.6876 19.8225V22.3398C21.6873 22.5404 21.6075 22.7328 21.4657 22.8746C21.3238 23.0165 21.1315 23.0963 20.9309 23.0965ZM18.5427 22.212H20.8044V19.9498H18.5413L18.5427 22.212Z" fill="#FAFBFC"/>
<path d="M27.548 23.0965H25.0319C24.8313 23.0963 24.639 23.0165 24.4971 22.8746C24.3553 22.7328 24.2755 22.5404 24.2752 22.3398V19.8225C24.2754 19.6218 24.3551 19.4293 24.497 19.2874C24.6388 19.1454 24.8312 19.0655 25.0319 19.0653H27.5493C27.7497 19.066 27.9417 19.1461 28.0833 19.288C28.2248 19.4298 28.3044 19.622 28.3047 19.8225V22.3398C28.3043 22.5404 28.2245 22.7327 28.0827 22.8745C27.9408 23.0163 27.7486 23.0962 27.548 23.0965ZM25.1598 22.212H27.4202V19.9498H25.1584L25.1598 22.212Z" fill="#FAFBFC"/>
<path d="M7.69535 28.8417H5.17933C4.97852 28.8413 4.78605 28.7613 4.64418 28.6192C4.5023 28.4771 4.42262 28.2845 4.42262 28.0836V25.5676C4.42286 25.367 4.50266 25.1747 4.64452 25.0328C4.78638 24.8909 4.97871 24.8111 5.17933 24.8109H7.69535C7.89601 24.811 8.08841 24.8908 8.2303 25.0327C8.37218 25.1746 8.45194 25.367 8.45206 25.5676V28.0836C8.45218 28.2845 8.37253 28.4772 8.23064 28.6193C8.08874 28.7615 7.8962 28.8414 7.69535 28.8417ZM5.30714 27.9572H7.56887V25.6954H5.30714V27.9572Z" fill="#FAFBFC"/>
<path d="M14.3138 28.8417H11.7964C11.5956 28.8414 11.403 28.7615 11.2611 28.6193C11.1192 28.4772 11.0396 28.2845 11.0397 28.0836V25.5676C11.0398 25.367 11.1196 25.1746 11.2615 25.0327C11.4034 24.8908 11.5958 24.811 11.7964 24.8109H14.3138C14.5144 24.811 14.7068 24.8908 14.8487 25.0327C14.9906 25.1746 15.0704 25.367 15.0705 25.5676V28.0836C15.0706 28.2845 14.991 28.4772 14.8491 28.6193C14.7072 28.7615 14.5146 28.8414 14.3138 28.8417ZM11.9256 27.9572H14.1873V25.6954H11.9242L11.9256 27.9572Z" fill="#FAFBFC"/>
<path d="M20.9309 28.8417H18.4135C18.2127 28.8414 18.0201 28.7615 17.8782 28.6193C17.7363 28.4772 17.6567 28.2845 17.6568 28.0836V25.5676C17.6569 25.367 17.7367 25.1746 17.8786 25.0327C18.0205 24.8908 18.2129 24.811 18.4135 24.8109H20.9309C21.1315 24.811 21.3239 24.8908 21.4658 25.0327C21.6077 25.1746 21.6875 25.367 21.6876 25.5676V28.0836C21.6877 28.2845 21.6081 28.4772 21.4662 28.6193C21.3243 28.7615 21.1317 28.8414 20.9309 28.8417ZM18.5427 27.9572H20.8044V25.6954H18.5413L18.5427 27.9572Z" fill="#FAFBFC"/>
</g>
<defs>
<clipPath id="clip0_1_469">
<rect width="32.7273" height="32.7273" fill="white"/>
</clipPath>
</defs>
</svg>
