<svg width="32" height="32" viewBox="0 0 32 32" fill="none" xmlns="http://www.w3.org/2000/svg">
<path d="M12.3113 27.719H11.0529C10.9382 27.719 10.8282 27.6734 10.7471 27.5923C10.666 27.5112 10.6205 27.4012 10.6205 27.2865C10.6205 27.1719 10.666 27.0619 10.7471 26.9808C10.8282 26.8997 10.9382 26.8541 11.0529 26.8541H12.3113C12.426 26.8541 12.536 26.8997 12.6171 26.9808C12.6982 27.0619 12.7437 27.1719 12.7437 27.2865C12.7437 27.4012 12.6982 27.5112 12.6171 27.5923C12.536 27.6734 12.426 27.719 12.3113 27.719Z" fill="white"/>
<path d="M29.3232 27.7188H19.6497C19.535 27.7188 19.425 27.6733 19.3439 27.5922C19.2628 27.5111 19.2172 27.4011 19.2172 27.2864C19.2172 27.1717 19.2628 27.0617 19.3439 26.9806C19.425 26.8995 19.535 26.854 19.6497 26.854H29.3232C29.5743 26.8537 29.815 26.7539 29.9926 26.5763C30.1701 26.3988 30.27 26.158 30.2702 25.9069V8.90802C30.2699 8.65696 30.17 8.41628 29.9925 8.23875C29.8149 8.06122 29.5742 7.96134 29.3232 7.961H2.6767C2.42564 7.96134 2.18496 8.06122 2.00743 8.23875C1.8299 8.41628 1.73002 8.65696 1.72967 8.90802V25.9069C1.7299 26.158 1.82975 26.3988 2.0073 26.5763C2.18486 26.7539 2.4256 26.8537 2.6767 26.854H8.02589C8.14058 26.854 8.25057 26.8995 8.33166 26.9806C8.41276 27.0617 8.45832 27.1717 8.45832 27.2864C8.45832 27.4011 8.41276 27.5111 8.33166 27.5922C8.25057 27.6733 8.14058 27.7188 8.02589 27.7188H2.6767C2.19651 27.7177 1.73631 27.5264 1.39676 27.1869C1.05721 26.8473 0.865949 26.3871 0.864807 25.9069V8.90802C0.865949 8.42783 1.05721 7.96763 1.39676 7.62808C1.73631 7.28853 2.19651 7.09727 2.6767 7.09613H29.3232C29.8034 7.09727 30.2636 7.28853 30.6031 7.62808C30.9427 7.96763 31.1339 8.42783 31.1351 8.90802V25.9069C31.1339 26.3871 30.9427 26.8473 30.6031 27.1869C30.2636 27.5264 29.8034 27.7177 29.3232 27.7188Z" fill="white"/>
<path d="M16.6227 27.719H15.3384C15.2237 27.719 15.1137 27.6734 15.0326 27.5923C14.9515 27.5112 14.906 27.4012 14.906 27.2865C14.906 27.1719 14.9515 27.0619 15.0326 26.9808C15.1137 26.8997 15.2237 26.8541 15.3384 26.8541H16.6227C16.7374 26.8541 16.8474 26.8997 16.9285 26.9808C17.0096 27.0619 17.0551 27.1719 17.0551 27.2865C17.0551 27.4012 17.0096 27.5112 16.9285 27.5923C16.8474 27.6734 16.7374 27.719 16.6227 27.719Z" fill="white"/>
<path d="M19.905 7.96107H12.0948C11.9801 7.96107 11.8702 7.91551 11.7891 7.83441C11.708 7.75331 11.6624 7.64332 11.6624 7.52863L11.6672 5.59523C11.6674 5.24691 11.8058 4.91291 12.052 4.66653C12.2982 4.42016 12.6321 4.28152 12.9805 4.28107H19.0297C19.3778 4.28152 19.7115 4.41999 19.9576 4.6661C20.2037 4.91221 20.3421 5.24588 20.3426 5.59393L20.3374 7.52863C20.3374 7.64332 20.2919 7.75331 20.2108 7.83441C20.1297 7.91551 20.0197 7.96107 19.905 7.96107ZM12.5286 7.0962H19.4738L19.4777 5.59436C19.4777 5.47551 19.4306 5.36151 19.3465 5.27743C19.2625 5.19334 19.1486 5.14605 19.0297 5.14593H12.9805C12.8616 5.14605 12.7477 5.19327 12.6636 5.27725C12.5796 5.36123 12.5322 5.47511 12.532 5.59393L12.5286 7.0962Z" fill="white"/>
<path d="M18.9307 16.6918C18.826 16.6918 18.7248 16.6537 18.646 16.5847C18.5671 16.5157 18.5161 16.4204 18.5022 16.3166C18.4884 16.2127 18.5127 16.1074 18.5707 16.0201C18.6286 15.9328 18.7163 15.8696 18.8174 15.8421L30.5887 12.627C30.6994 12.5967 30.8175 12.6116 30.9172 12.6685C31.0169 12.7253 31.0899 12.8194 31.1201 12.9301C31.1504 13.0408 31.1355 13.159 31.0786 13.2586C31.0218 13.3583 30.9277 13.4313 30.817 13.4616L19.0453 16.6754C19.008 16.686 18.9695 16.6915 18.9307 16.6918Z" fill="white"/>
<path d="M13.0691 16.6919C13.0304 16.6919 12.9919 16.6866 12.9545 16.6764L1.18329 13.4595C1.12849 13.4445 1.07718 13.4189 1.03229 13.384C0.987397 13.3492 0.949804 13.3059 0.921655 13.2566C0.893507 13.2072 0.875354 13.1528 0.868234 13.0964C0.861113 13.0401 0.865165 12.9828 0.880157 12.928C0.895149 12.8732 0.920788 12.8219 0.955609 12.777C0.990431 12.7321 1.03375 12.6946 1.08311 12.6664C1.13246 12.6383 1.18687 12.6201 1.24323 12.613C1.2996 12.6059 1.35682 12.6099 1.41162 12.6249L13.1824 15.8413C13.2835 15.8688 13.3712 15.9321 13.4292 16.0193C13.4872 16.1066 13.5115 16.2119 13.4977 16.3158C13.4838 16.4196 13.4327 16.5149 13.3539 16.584C13.2751 16.653 13.1739 16.691 13.0691 16.6911V16.6919Z" fill="white"/>
<path d="M18.6512 18.2988H13.3478C13.1596 18.2985 12.9792 18.2236 12.8461 18.0905C12.7131 17.9574 12.6383 17.7769 12.6382 17.5887V15.1576C12.6383 14.9694 12.7131 14.7889 12.8461 14.6558C12.9792 14.5227 13.1596 14.4478 13.3478 14.4475H18.6512C18.8394 14.4478 19.0199 14.5226 19.153 14.6557C19.2861 14.7889 19.361 14.9693 19.3612 15.1576V17.5887C19.361 17.777 19.2861 17.9574 19.153 18.0905C19.0199 18.2237 18.8394 18.2985 18.6512 18.2988ZM13.5052 17.4339H18.4964V15.3124H13.5031L13.5052 17.4339Z" fill="white"/>
</svg>
