<svg width="20" height="20" viewBox="0 0 20 20" fill="none" xmlns="http://www.w3.org/2000/svg">
<rect width="19" height="19" transform="translate(0.0834961 0.777832)" fill="white" fill-opacity="0.01"/>
<path fill-rule="evenodd" clip-rule="evenodd" d="M5.21745 14.7658C5.36449 14.9129 5.53906 15.0296 5.7312 15.1092C5.92334 15.1888 6.12929 15.2298 6.33727 15.2298C6.54525 15.2298 6.75119 15.1888 6.94333 15.1092C7.13547 15.0296 7.31005 14.9129 7.45708 14.7658L5.21745 12.5254C5.07024 12.6724 4.95346 12.8471 4.87378 13.0393C4.7941 13.2315 4.75308 13.4375 4.75308 13.6456C4.75308 13.8537 4.7941 14.0597 4.87378 14.2519C4.95346 14.4441 5.07024 14.6188 5.21745 14.7658ZM9.09425 5.1146L8.52029 5.68856C7.9012 6.30765 6.7707 7.12385 5.9822 7.5181L3.59375 8.71273C3.20187 8.90906 3.13141 9.32548 3.4457 9.63977L10.2192 16.4133C10.5343 16.7268 10.9491 16.6611 11.1462 16.2644L12.3417 13.8768C12.7327 13.0946 13.5497 11.9609 14.1712 11.3387L14.7452 10.7639C15.3969 10.1123 15.8033 9.25536 15.8957 8.33836C15.988 7.42136 15.7606 6.50062 15.2518 5.7321C15.337 5.66389 15.4072 5.57897 15.4583 5.48258C15.5094 5.38619 15.5402 5.28037 15.5489 5.17162C15.5576 5.06287 15.5439 4.9535 15.5087 4.85024C15.4735 4.74698 15.4176 4.65201 15.3443 4.57117C15.2711 4.49034 15.182 4.42535 15.0827 4.38021C14.9834 4.33506 14.8759 4.31072 14.7668 4.30868C14.6578 4.30663 14.5494 4.32693 14.4485 4.36832C14.3475 4.40971 14.2561 4.47132 14.1799 4.54935C14.1617 4.56915 14.1435 4.58815 14.1277 4.60873C13.4733 4.17486 12.7056 3.94355 11.9205 3.94373C11.3956 3.9431 10.8757 4.04614 10.3907 4.24693C9.90569 4.44773 9.46511 4.74232 9.09425 5.11381V5.1146Z" fill="#42526E"/>
</svg>
