<svg width="32" height="32" viewBox="0 0 32 32" fill="none" xmlns="http://www.w3.org/2000/svg">
<path d="M1.29724 12.9731C1.20688 12.973 1.11882 12.9446 1.04542 12.8919C0.972021 12.8392 0.916976 12.7649 0.888016 12.6793C0.859055 12.5937 0.857635 12.5012 0.883953 12.4147C0.910272 12.3283 0.963008 12.2522 1.03475 12.1973L5.79151 8.56012C5.8828 8.49293 5.99681 8.46427 6.10902 8.4803C6.22123 8.49634 6.32265 8.55579 6.39147 8.64586C6.46028 8.73593 6.49098 8.84941 6.47695 8.96189C6.46293 9.07436 6.4053 9.17684 6.31648 9.24725L1.55973 12.884C1.48447 12.9419 1.39217 12.9732 1.29724 12.9731Z" fill="white"/>
<path d="M30.7027 31.1354H21.3794C21.2647 31.1354 21.1547 31.0898 21.0736 31.0087C20.9926 30.9276 20.947 30.8176 20.947 30.7029C20.947 30.5882 20.9926 30.4783 21.0736 30.3972C21.1547 30.3161 21.2647 30.2705 21.3794 30.2705H30.2702V12.5408C30.2702 12.4261 30.3158 12.3161 30.3969 12.235C30.478 12.1539 30.588 12.1083 30.7027 12.1083C30.8173 12.1083 30.9273 12.1539 31.0084 12.235C31.0895 12.3161 31.1351 12.4261 31.1351 12.5408V30.7029C31.1351 30.8176 31.0895 30.9276 31.0084 31.0087C30.9273 31.0898 30.8173 31.1354 30.7027 31.1354Z" fill="white"/>
<path d="M14.041 31.1353H12.7827C12.668 31.1353 12.558 31.0897 12.4769 31.0086C12.3958 30.9275 12.3502 30.8175 12.3502 30.7028C12.3502 30.5881 12.3958 30.4781 12.4769 30.397C12.558 30.3159 12.668 30.2704 12.7827 30.2704H14.041C14.1557 30.2704 14.2657 30.3159 14.3468 30.397C14.4279 30.4781 14.4735 30.5881 14.4735 30.7028C14.4735 30.8175 14.4279 30.9275 14.3468 31.0086C14.2657 31.0897 14.1557 31.1353 14.041 31.1353Z" fill="white"/>
<path d="M9.75562 31.1354H1.29724C1.18255 31.1354 1.07256 31.0898 0.991464 31.0087C0.910367 30.9276 0.864807 30.8176 0.864807 30.7029V12.5408C0.864807 12.4261 0.910367 12.3161 0.991464 12.235C1.07256 12.1539 1.18255 12.1083 1.29724 12.1083C1.41193 12.1083 1.52192 12.1539 1.60302 12.235C1.68411 12.3161 1.72967 12.4261 1.72967 12.5408V30.2705H9.75562C9.87031 30.2705 9.9803 30.3161 10.0614 30.3972C10.1425 30.4783 10.1881 30.5882 10.1881 30.7029C10.1881 30.8176 10.1425 30.9276 10.0614 31.0087C9.9803 31.0898 9.87031 31.1354 9.75562 31.1354Z" fill="white"/>
<path d="M18.3525 31.1353H17.0681C16.9535 31.1353 16.8435 31.0897 16.7624 31.0086C16.6813 30.9275 16.6357 30.8175 16.6357 30.7028C16.6357 30.5881 16.6813 30.4781 16.7624 30.397C16.8435 30.3159 16.9535 30.2704 17.0681 30.2704H18.3525C18.4671 30.2704 18.5771 30.3159 18.6582 30.397C18.7393 30.4781 18.7849 30.5881 18.7849 30.7028C18.7849 30.8175 18.7393 30.9275 18.6582 31.0086C18.5771 31.0897 18.4671 31.1353 18.3525 31.1353Z" fill="white"/>
<path d="M19.7444 4.59238C19.6497 4.59232 19.5576 4.56118 19.4823 4.50373L16 1.84167L12.5176 4.50373C12.4265 4.5734 12.3114 4.60403 12.1977 4.58886C12.084 4.5737 11.981 4.51399 11.9113 4.42287C11.8416 4.33175 11.811 4.21668 11.8262 4.10298C11.8414 3.98929 11.9011 3.88627 11.9922 3.8166L15.7375 0.95389C15.8129 0.896307 15.9051 0.865112 16 0.865112C16.0948 0.865112 16.1871 0.896307 16.2624 0.95389L20.0077 3.8166C20.0795 3.87157 20.1323 3.94768 20.1586 4.0342C20.1849 4.12073 20.1834 4.21332 20.1543 4.29895C20.1253 4.38459 20.0701 4.45895 19.9965 4.51159C19.923 4.56422 19.8348 4.59248 19.7444 4.59238Z" fill="white"/>
<path d="M30.7028 12.9729C30.6078 12.973 30.5155 12.9417 30.4403 12.8838L25.6835 9.24708C25.6009 9.17473 25.549 9.07368 25.5381 8.96443C25.5273 8.85518 25.5585 8.7459 25.6253 8.65876C25.692 8.57162 25.7895 8.51315 25.8978 8.4952C26.0061 8.47725 26.1172 8.50117 26.2085 8.5621L30.9652 12.1993C31.0361 12.2545 31.088 12.3304 31.1138 12.4164C31.1396 12.5024 31.1379 12.5944 31.1091 12.6794C31.0802 12.7645 31.0256 12.8384 30.9528 12.891C30.88 12.9436 30.7926 12.9722 30.7028 12.9729Z" fill="white"/>
<path d="M16 23.4125C14.5937 23.4142 13.2306 22.9264 12.1448 22.0326L1.02224 12.8728C0.933702 12.7999 0.877765 12.6948 0.866736 12.5806C0.855707 12.4664 0.890489 12.3525 0.96343 12.264C1.03637 12.1754 1.1415 12.1195 1.25568 12.1085C1.36987 12.0974 1.48376 12.1322 1.5723 12.2051L12.6949 21.3649C13.6266 22.1297 14.7946 22.5477 16 22.5477C17.2053 22.5477 18.3734 22.1297 19.3051 21.3649L30.4276 12.2051C30.4715 12.169 30.522 12.1419 30.5763 12.1253C30.6307 12.1087 30.6877 12.103 30.7443 12.1085C30.8008 12.1139 30.8557 12.1305 30.9059 12.1571C30.956 12.1838 31.0004 12.2201 31.0365 12.264C31.0726 12.3078 31.0998 12.3583 31.1163 12.4126C31.1329 12.467 31.1387 12.524 31.1332 12.5806C31.1277 12.6371 31.1112 12.692 31.0845 12.7422C31.0578 12.7923 31.0215 12.8367 30.9777 12.8728L19.8551 22.0326C18.7693 22.9264 17.4063 23.4142 16 23.4125Z" fill="white"/>
<path d="M30.7027 31.1352C30.6023 31.1352 30.5051 31.1003 30.4276 31.0366L19.4006 21.9555C19.3568 21.9193 19.3205 21.8749 19.2938 21.8248C19.2671 21.7747 19.2506 21.7197 19.2451 21.6632C19.2396 21.6067 19.2454 21.5496 19.262 21.4953C19.2786 21.441 19.3057 21.3904 19.3418 21.3466C19.3779 21.3028 19.4223 21.2665 19.4725 21.2398C19.5226 21.2131 19.5775 21.1966 19.6341 21.1911C19.6906 21.1856 19.7477 21.1914 19.802 21.2079C19.8563 21.2245 19.9068 21.2517 19.9507 21.2878L30.9777 30.3689C31.0465 30.4255 31.0961 30.502 31.1197 30.5879C31.1434 30.6738 31.1399 30.7649 31.1098 30.8488C31.0797 30.9327 31.0245 31.0052 30.9516 31.0564C30.8787 31.1077 30.7918 31.1352 30.7027 31.1352Z" fill="white"/>
<path d="M1.29731 31.1351C1.20821 31.1352 1.12127 31.1077 1.04839 31.0564C0.975508 31.0052 0.920237 30.9327 0.890137 30.8488C0.860038 30.7649 0.856578 30.6738 0.880232 30.5879C0.903886 30.502 0.953498 30.4255 1.02228 30.3689L12.0493 21.2878C12.1379 21.2148 12.2517 21.1801 12.3659 21.1911C12.4801 21.2021 12.5852 21.2581 12.6582 21.3466C12.7311 21.4351 12.7659 21.549 12.7549 21.6632C12.7438 21.7774 12.6879 21.8825 12.5994 21.9555L1.57234 31.0365C1.49488 31.1003 1.39765 31.1352 1.29731 31.1351Z" fill="white"/>
<path d="M25.946 16.8907C25.8313 16.8907 25.7213 16.8451 25.6402 16.764C25.5591 16.6829 25.5135 16.5729 25.5135 16.4583V4.59448H6.48651V16.4583C6.48651 16.5729 6.44095 16.6829 6.35985 16.764C6.27875 16.8451 6.16876 16.8907 6.05408 16.8907C5.93939 16.8907 5.8294 16.8451 5.7483 16.764C5.6672 16.6829 5.62164 16.5729 5.62164 16.4583V4.16205C5.62164 4.04736 5.6672 3.93737 5.7483 3.85627C5.8294 3.77517 5.93939 3.72961 6.05408 3.72961H25.946C26.0607 3.72961 26.1706 3.77517 26.2517 3.85627C26.3328 3.93737 26.3784 4.04736 26.3784 4.16205V16.4583C26.3784 16.5729 26.3328 16.6829 26.2517 16.764C26.1706 16.8451 26.0607 16.8907 25.946 16.8907Z" fill="white"/>
<path d="M16 12.0856C15.5914 12.0856 15.192 11.9644 14.8523 11.7374C14.5126 11.5104 14.2478 11.1878 14.0915 10.8104C13.9351 10.4329 13.8942 10.0175 13.9739 9.61683C14.0536 9.21612 14.2504 8.84804 14.5393 8.55914C14.8282 8.27024 15.1963 8.0735 15.597 7.99379C15.9977 7.91409 16.413 7.955 16.7905 8.11135C17.168 8.2677 17.4906 8.53247 17.7176 8.87218C17.9445 9.21188 18.0657 9.61127 18.0657 10.0198C18.0657 10.1345 18.0201 10.2445 17.939 10.3256C17.8579 10.4067 17.748 10.4523 17.6333 10.4523C17.5186 10.4523 17.4086 10.4067 17.3275 10.3256C17.2464 10.2445 17.2008 10.1345 17.2008 10.0198C17.2008 9.78233 17.1304 9.55015 16.9985 9.35267C16.8665 9.15519 16.679 9.00127 16.4595 8.91038C16.2401 8.81949 15.9986 8.79571 15.7657 8.84204C15.5327 8.88838 15.3188 9.00275 15.1508 9.17069C14.9829 9.33864 14.8685 9.55261 14.8222 9.78556C14.7758 10.0185 14.7996 10.26 14.8905 10.4794C14.9814 10.6988 15.1353 10.8864 15.3328 11.0183C15.5303 11.1503 15.7625 11.2207 16 11.2207C16.1147 11.2207 16.2246 11.2663 16.3057 11.3474C16.3868 11.4285 16.4324 11.5384 16.4324 11.6531C16.4324 11.7678 16.3868 11.8778 16.3057 11.9589C16.2246 12.04 16.1147 12.0856 16 12.0856Z" fill="white"/>
<path d="M16 15.3512C15.4523 15.3506 14.9272 15.1328 14.5399 14.7455C14.1526 14.3582 13.9348 13.8331 13.9342 13.2854C13.9342 13.1708 13.9798 13.0608 14.0609 12.9797C14.142 12.8986 14.252 12.853 14.3667 12.853C14.4814 12.853 14.5913 12.8986 14.6724 12.9797C14.7535 13.0608 14.7991 13.1708 14.7991 13.2854C14.7989 13.523 14.8692 13.7553 15.0011 13.9528C15.1329 14.1504 15.3204 14.3045 15.5398 14.3955C15.7592 14.4865 16.0007 14.5104 16.2337 14.4642C16.4667 14.418 16.6808 14.3037 16.8488 14.1358C17.0168 13.9678 17.1313 13.7539 17.1777 13.5209C17.2241 13.2879 17.2004 13.0464 17.1095 12.827C17.0186 12.6075 16.8647 12.4199 16.6672 12.2879C16.4697 12.1559 16.2375 12.0854 16 12.0854C15.8853 12.0854 15.7753 12.0399 15.6942 11.9588C15.6131 11.8777 15.5675 11.7677 15.5675 11.653C15.5675 11.5383 15.6131 11.4283 15.6942 11.3472C15.7753 11.2661 15.8853 11.2206 16 11.2206C16.2747 11.215 16.5479 11.2642 16.8034 11.3655C17.0589 11.4668 17.2916 11.618 17.4879 11.8103C17.6842 12.0027 17.8402 12.2322 17.9467 12.4856C18.0531 12.739 18.108 13.011 18.108 13.2859C18.108 13.5607 18.0531 13.8328 17.9467 14.0862C17.8402 14.3395 17.6842 14.5691 17.4879 14.7614C17.2916 14.9538 17.0589 15.105 16.8034 15.2063C16.5479 15.3075 16.2747 15.3568 16 15.3512Z" fill="white"/>
<path d="M16.0026 16.1805C15.888 16.1805 15.778 16.1349 15.6969 16.0538C15.6158 15.9727 15.5702 15.8627 15.5702 15.7481V14.9221C15.5702 14.8074 15.6158 14.6974 15.6969 14.6163C15.778 14.5352 15.888 14.4897 16.0026 14.4897C16.1173 14.4897 16.2273 14.5352 16.3084 14.6163C16.3895 14.6974 16.4351 14.8074 16.4351 14.9221V15.7481C16.4351 15.8627 16.3895 15.9727 16.3084 16.0538C16.2273 16.1349 16.1173 16.1805 16.0026 16.1805Z" fill="white"/>
<path d="M16.0026 8.82143C15.888 8.82143 15.778 8.77587 15.6969 8.69477C15.6158 8.61367 15.5702 8.50368 15.5702 8.38899V7.55829C15.5702 7.4436 15.6158 7.33361 15.6969 7.25251C15.778 7.17141 15.888 7.12585 16.0026 7.12585C16.1173 7.12585 16.2273 7.17141 16.3084 7.25251C16.3895 7.33361 16.4351 7.4436 16.4351 7.55829V8.38899C16.4351 8.50368 16.3895 8.61367 16.3084 8.69477C16.2273 8.77587 16.1173 8.82143 16.0026 8.82143Z" fill="white"/>
</svg>
