<svg width="32" height="32" viewBox="0 0 32 32" fill="none" xmlns="http://www.w3.org/2000/svg">
<g clip-path="url(#clip0_1_524)">
<path d="M31.7469 1.6147C31.6153 1.54634 31.4637 1.54707 31.3348 1.60615C31.3348 1.60567 31.2957 1.62471 31.2933 1.62617L4.61203 17.2386C4.42917 17.3458 4.34079 17.5621 4.39621 17.7667C4.45163 17.9713 4.63742 18.1134 4.84934 18.1134H12.6606L17.016 21.7333C17.0194 21.7362 17.0236 21.7381 17.0273 21.7411C17.0429 21.7533 17.059 21.7647 17.0763 21.775C17.0849 21.7801 17.0937 21.7845 17.1025 21.7889C17.1105 21.7931 17.1176 21.7977 17.1256 21.8014C17.1337 21.8048 17.1418 21.8075 17.1498 21.8106C17.1549 21.8124 17.1598 21.8146 17.165 21.8163C17.1864 21.8236 17.2084 21.8292 17.2306 21.8334C17.2355 21.8343 17.2406 21.8351 17.2455 21.8358C17.269 21.8392 17.2921 21.8417 17.3156 21.8417H17.3158C17.3317 21.8417 17.3473 21.8407 17.3629 21.8392C17.3678 21.8387 17.3727 21.8377 17.3776 21.837C17.3883 21.8358 17.3988 21.8341 17.4093 21.8319C17.4152 21.8307 17.4211 21.8292 17.4269 21.828C17.4362 21.8255 17.4457 21.8231 17.455 21.8202C17.4611 21.8182 17.4672 21.8163 17.4733 21.8141C17.4823 21.8109 17.4909 21.8075 17.4997 21.8038C17.5058 21.8011 17.5116 21.7987 17.5177 21.796C17.5268 21.7916 17.5358 21.7865 17.5448 21.7816C17.5497 21.7789 17.5548 21.7765 17.5597 21.7735C17.5729 21.7655 17.5858 21.7567 17.5983 21.7474C17.6024 21.7442 17.6064 21.7406 17.6105 21.7372C17.6173 21.7315 17.6244 21.7262 17.6313 21.7203L21.6161 18.1132H28.0353C28.255 18.1132 28.4454 17.9608 28.4933 17.7465L31.9886 2.13374C32.035 1.92598 31.9359 1.71309 31.7469 1.6147ZM12.6601 17.1744H6.58102L26.9037 5.28241L12.6601 17.1744ZM17.7853 20.3141V18.1134H20.2169L17.7853 20.3141ZM27.659 17.1744H18.3781L20.7589 14.5595C20.9335 14.3678 20.9196 14.0709 20.7279 13.8964C20.5363 13.7218 20.2394 13.7355 20.0648 13.9274L16.9689 17.3278C16.9672 17.3295 16.966 17.3317 16.9643 17.3334C16.9372 17.3641 16.9142 17.3983 16.8959 17.4352C16.894 17.4391 16.892 17.4427 16.8903 17.4467C16.8734 17.483 16.8612 17.5218 16.8539 17.5624C16.8532 17.567 16.8525 17.5719 16.8517 17.5768C16.8495 17.5929 16.8481 17.6093 16.8473 17.6259C16.8471 17.63 16.8468 17.6344 16.8468 17.6385C16.8468 17.6405 16.8466 17.6422 16.8466 17.6439V20.3717L13.5637 17.6429L26.5629 6.79021L21.329 12.539C21.1544 12.7306 21.1684 13.0275 21.36 13.202C21.5516 13.3766 21.8488 13.3627 22.0231 13.171L30.6854 3.65668L27.659 17.1744Z" fill="#FAFBFC"/>
<path d="M3.49097 9.75745H5.45239C5.71143 9.75745 5.92163 9.54724 5.92163 9.28796C5.92163 9.02869 5.71143 8.81848 5.45239 8.81848H3.49097C3.10571 8.81848 2.79224 8.505 2.79224 8.11951C2.79224 7.73425 3.10571 7.42053 3.49097 7.42053H4.17749C4.34009 7.42053 4.49097 7.33655 4.57666 7.19836C4.66211 7.06018 4.67017 6.88782 4.5979 6.74231C4.48511 6.51526 4.42773 6.27112 4.42773 6.01648C4.42773 5.1156 5.16064 4.38269 6.06152 4.38269C6.9624 4.38269 7.69507 5.1156 7.69507 6.01648C7.69507 6.27112 7.63794 6.51526 7.52515 6.74231C7.45264 6.88782 7.46069 7.06018 7.54639 7.19836C7.63208 7.33655 7.78296 7.42053 7.94531 7.42053H8.70972C8.96899 7.42053 9.1792 7.21057 9.1792 6.95129C9.1792 6.35095 9.66748 5.86267 10.2676 5.86267C10.8643 5.86267 11.3503 6.34534 11.356 6.9408C11.3557 6.94739 11.3555 6.95374 11.3555 6.95886C11.3535 7.19568 11.5283 7.39685 11.7629 7.4281C12.1084 7.474 12.3687 7.77136 12.3687 8.11951C12.3687 8.505 12.0552 8.81848 11.6697 8.81848H7.33008C7.0708 8.81848 6.8606 9.02869 6.8606 9.28796C6.8606 9.54724 7.0708 9.75745 7.33008 9.75745H11.6697C12.5728 9.75745 13.3076 9.02283 13.3076 8.11951C13.3076 7.43518 12.8789 6.83459 12.2634 6.59436C12.0945 5.64612 11.2639 4.92395 10.2678 4.92395C9.59106 4.92395 8.99072 5.2572 8.62207 5.76819C8.49683 4.4657 7.39624 3.44397 6.06152 3.44397C4.64282 3.44397 3.48901 4.59802 3.48901 6.01648C3.48901 6.17419 3.50293 6.32971 3.53076 6.48181H3.49097C2.58789 6.48181 1.85303 7.21643 1.85303 8.11951C1.85303 9.02283 2.58789 9.75745 3.49097 9.75745Z" fill="#FAFBFC"/>
<path d="M29.3275 27.8544C29.1664 27.1237 28.5136 26.5753 27.735 26.5753C27.2868 26.5753 26.88 26.7572 26.5851 27.0511C26.3766 26.1476 25.5658 25.4723 24.6 25.4723C23.477 25.4723 22.5631 26.3861 22.5631 27.5092C22.5631 27.5873 22.5675 27.6644 22.5761 27.7408C21.8874 27.796 21.3439 28.3741 21.3439 29.0768C21.3439 29.8158 21.9452 30.4171 22.6842 30.4171H28.7802C29.5192 30.4171 30.1205 29.8158 30.1205 29.0768C30.1205 28.5397 29.798 28.0658 29.3275 27.8544ZM28.7802 29.4781H22.6842C22.4628 29.4781 22.2829 29.298 22.2829 29.0768C22.2829 28.8553 22.4628 28.6754 22.6842 28.6754H23.196C23.3583 28.6754 23.5094 28.5912 23.5949 28.4532C23.6806 28.3151 23.6886 28.1425 23.6161 27.9969C23.5404 27.8444 23.5019 27.6803 23.5019 27.5092C23.5019 26.9037 23.9945 26.4113 24.6 26.4113C25.2055 26.4113 25.6982 26.9037 25.6982 27.5092C25.6982 27.6803 25.6596 27.8444 25.5839 27.9969C25.5114 28.1425 25.5194 28.3151 25.6051 28.4532C25.6908 28.5912 25.8417 28.6754 26.0041 28.6754H26.5739C26.8332 28.6754 27.0434 28.4652 27.0434 28.2059C27.0434 27.8246 27.3537 27.5143 27.735 27.5143C28.1132 27.5143 28.4215 27.8195 28.4267 28.1967C28.4264 28.203 28.4262 28.2091 28.4262 28.2145C28.4262 28.4498 28.6005 28.6488 28.8336 28.6798C29.0319 28.7062 29.1815 28.8768 29.1815 29.0768C29.1815 29.298 29.0014 29.4781 28.7802 29.4781Z" fill="#FAFBFC"/>
<path d="M7.98365 23.4727C7.82251 22.742 7.16968 22.1939 6.39136 22.1939C5.94287 22.1939 5.53613 22.3755 5.24121 22.6695C5.03272 21.7661 4.22193 21.0906 3.2561 21.0906C2.13306 21.0906 1.21924 22.0047 1.21924 23.1277C1.21924 23.2056 1.22363 23.283 1.23218 23.3592C0.543457 23.4146 0 23.9927 0 24.6951C0 25.4344 0.601319 26.0354 1.34033 26.0354H7.43628C8.1753 26.0354 8.77661 25.4344 8.77661 24.6951C8.77661 24.1582 8.4541 23.6841 7.98365 23.4727ZM7.43628 25.0967H1.34033C1.1189 25.0967 0.938965 24.9165 0.938965 24.6951C0.938965 24.4739 1.1189 24.2937 1.34033 24.2937H1.85205C2.01441 24.2937 2.16553 24.2097 2.25098 24.0716C2.33667 23.9334 2.34473 23.761 2.27222 23.6153C2.19653 23.4629 2.15796 23.2989 2.15796 23.1277C2.15796 22.5222 2.65064 22.0296 3.2561 22.0296C3.86157 22.0296 4.35425 22.5222 4.35425 23.1277C4.35425 23.2989 4.31568 23.4629 4.23999 23.6153C4.16748 23.761 4.17554 23.9334 4.26123 24.0716C4.34693 24.2097 4.4978 24.2937 4.66016 24.2937H5.22998C5.48926 24.2937 5.69946 24.0838 5.69946 23.8242C5.69946 23.4429 6.00977 23.1326 6.39112 23.1326C6.76953 23.1326 7.07764 23.438 7.08277 23.815C7.08252 23.8213 7.08228 23.8277 7.08228 23.8328C7.08228 24.0681 7.25659 24.2671 7.48975 24.2984C7.68799 24.3245 7.83765 24.4951 7.83765 24.6951C7.83765 24.9165 7.65772 25.0967 7.43628 25.0967Z" fill="#FAFBFC"/>
</g>
<defs>
<clipPath id="clip0_1_524">
<rect width="32" height="32" fill="white"/>
</clipPath>
</defs>
</svg>
