<svg width="32" height="32" viewBox="0 0 32 32" fill="none" xmlns="http://www.w3.org/2000/svg">
<path d="M16.947 31.1436H15.6627C15.548 31.1436 15.438 31.098 15.3569 31.0169C15.2758 30.9358 15.2303 30.8258 15.2303 30.7111C15.2303 30.5964 15.2758 30.4864 15.3569 30.4053C15.438 30.3242 15.548 30.2787 15.6627 30.2787H16.947C17.0617 30.2787 17.1717 30.3242 17.2528 30.4053C17.3339 30.4864 17.3795 30.5964 17.3795 30.7111C17.3795 30.8258 17.3339 30.9358 17.2528 31.0169C17.1717 31.098 17.0617 31.1436 16.947 31.1436Z" fill="white"/>
<path d="M8.35461 31.144H2.64649C2.40342 31.1438 2.17038 31.0471 1.9985 30.8753C1.82663 30.7034 1.72997 30.4703 1.72974 30.2273V6.11915C1.72997 5.87608 1.82663 5.64303 1.9985 5.47116C2.17038 5.29928 2.40342 5.20262 2.64649 5.20239H6.47785C6.59254 5.20239 6.70253 5.24795 6.78363 5.32905C6.86472 5.41015 6.91028 5.52014 6.91028 5.63483C6.91028 5.74951 6.86472 5.8595 6.78363 5.9406C6.70253 6.0217 6.59254 6.06726 6.47785 6.06726H2.64649C2.63966 6.0672 2.63289 6.0685 2.62657 6.07109C2.62025 6.07368 2.6145 6.0775 2.60967 6.08233C2.60484 6.08716 2.60102 6.0929 2.59843 6.09922C2.59585 6.10555 2.59454 6.11232 2.5946 6.11915V30.2273C2.59454 30.2341 2.59585 30.2409 2.59843 30.2472C2.60102 30.2535 2.60484 30.2593 2.60967 30.2641C2.6145 30.2689 2.62025 30.2727 2.62657 30.2753C2.63289 30.2779 2.63966 30.2792 2.64649 30.2791H8.35461C8.4693 30.2791 8.57929 30.3247 8.66038 30.4058C8.74148 30.4869 8.78704 30.5969 8.78704 30.7116C8.78704 30.8263 8.74148 30.9363 8.66038 31.0174C8.57929 31.0985 8.4693 31.144 8.35461 31.144Z" fill="white"/>
<path d="M12.6357 31.1436H11.3816C11.267 31.1436 11.157 31.098 11.0759 31.0169C10.9948 30.9358 10.9492 30.8258 10.9492 30.7111C10.9492 30.5964 10.9948 30.4864 11.0759 30.4053C11.157 30.3242 11.267 30.2787 11.3816 30.2787H12.6357C12.7504 30.2787 12.8604 30.3242 12.9415 30.4053C13.0226 30.4864 13.0681 30.5964 13.0681 30.7111C13.0681 30.8258 13.0226 30.9358 12.9415 31.0169C12.8604 31.098 12.7504 31.1436 12.6357 31.1436Z" fill="white"/>
<path d="M21.5697 31.144H19.974C19.8594 31.144 19.7494 31.0985 19.6683 31.0174C19.5872 30.9363 19.5416 30.8263 19.5416 30.7116C19.5416 30.5969 19.5872 30.4869 19.6683 30.4058C19.7494 30.3247 19.8594 30.2791 19.974 30.2791H21.5697C21.5766 30.2792 21.5833 30.2779 21.5897 30.2753C21.596 30.2727 21.6017 30.2689 21.6065 30.2641C21.6114 30.2593 21.6152 30.2535 21.6178 30.2472C21.6204 30.2409 21.6217 30.2341 21.6216 30.2273V6.11915C21.6217 6.11232 21.6204 6.10555 21.6178 6.09922C21.6152 6.0929 21.6114 6.08716 21.6065 6.08233C21.6017 6.0775 21.596 6.07368 21.5897 6.07109C21.5833 6.0685 21.5766 6.0672 21.5697 6.06726H17.7384C17.6237 6.06726 17.5137 6.0217 17.4326 5.9406C17.3515 5.8595 17.3059 5.74951 17.3059 5.63483C17.3059 5.52014 17.3515 5.41015 17.4326 5.32905C17.5137 5.24795 17.6237 5.20239 17.7384 5.20239H21.5697C21.8128 5.20262 22.0458 5.29928 22.2177 5.47116C22.3896 5.64303 22.4863 5.87608 22.4865 6.11915V30.2273C22.4863 30.4703 22.3896 30.7034 22.2177 30.8753C22.0458 31.0471 21.8128 31.1438 21.5697 31.144Z" fill="white"/>
<path d="M17.7384 7.36222H6.47787C6.36318 7.36222 6.25319 7.31666 6.1721 7.23556C6.091 7.15447 6.04544 7.04447 6.04544 6.92979V4.35681C6.04544 4.24213 6.091 4.13213 6.1721 4.05104C6.25319 3.96994 6.36318 3.92438 6.47787 3.92438H8.82166C8.88048 3.09324 9.25214 2.31528 9.86176 1.74728C10.4714 1.17929 11.2736 0.863464 12.1068 0.863464C12.9401 0.863464 13.7423 1.17929 14.3519 1.74728C14.9616 2.31528 15.3332 3.09324 15.392 3.92438H17.7384C17.8531 3.92438 17.9631 3.96994 18.0442 4.05104C18.1253 4.13213 18.1708 4.24213 18.1708 4.35681V6.92979C18.1708 7.04447 18.1253 7.15447 18.0442 7.23556C17.9631 7.31666 17.8531 7.36222 17.7384 7.36222ZM6.91031 6.49735H17.306V4.78925H14.9665C14.8518 4.78925 14.7418 4.74369 14.6607 4.66259C14.5796 4.58149 14.5341 4.4715 14.5341 4.35681V4.15357C14.5341 3.5096 14.2783 2.892 13.8229 2.43664C13.3676 1.98128 12.75 1.72546 12.106 1.72546C11.462 1.72546 10.8444 1.98128 10.389 2.43664C9.93369 2.892 9.67787 3.5096 9.67787 4.15357V4.35681C9.67787 4.4715 9.63231 4.58149 9.55122 4.66259C9.47012 4.74369 9.36013 4.78925 9.24544 4.78925H6.91031V6.49735Z" fill="white"/>
<path d="M19.4755 12.7643H10.8268C10.7121 12.7643 10.6021 12.7187 10.521 12.6376C10.4399 12.5565 10.3944 12.4465 10.3944 12.3318C10.3944 12.2172 10.4399 12.1072 10.521 12.0261C10.6021 11.945 10.7121 11.8994 10.8268 11.8994H19.4755C19.5902 11.8994 19.7002 11.945 19.7812 12.0261C19.8623 12.1072 19.9079 12.2172 19.9079 12.3318C19.9079 12.4465 19.8623 12.5565 19.7812 12.6376C19.7002 12.7187 19.5902 12.7643 19.4755 12.7643Z" fill="white"/>
<path d="M19.4755 17.3062H10.8268C10.7121 17.3062 10.6021 17.2606 10.521 17.1795C10.4399 17.0984 10.3944 16.9884 10.3944 16.8737C10.3944 16.759 10.4399 16.649 10.521 16.5679C10.6021 16.4868 10.7121 16.4413 10.8268 16.4413H19.4755C19.5902 16.4413 19.7002 16.4868 19.7812 16.5679C19.8623 16.649 19.9079 16.759 19.9079 16.8737C19.9079 16.9884 19.8623 17.0984 19.7812 17.1795C19.7002 17.2606 19.5902 17.3062 19.4755 17.3062Z" fill="white"/>
<path d="M19.4755 21.8474H10.8268C10.7121 21.8474 10.6021 21.8019 10.521 21.7208C10.4399 21.6397 10.3944 21.5297 10.3944 21.415C10.3944 21.3003 10.4399 21.1903 10.521 21.1092C10.6021 21.0281 10.7121 20.9825 10.8268 20.9825H19.4755C19.5902 20.9825 19.7002 21.0281 19.7812 21.1092C19.8623 21.1903 19.9079 21.3003 19.9079 21.415C19.9079 21.5297 19.8623 21.6397 19.7812 21.7208C19.7002 21.8019 19.5902 21.8474 19.4755 21.8474Z" fill="white"/>
<path d="M19.4755 26.3892H10.8268C10.7121 26.3892 10.6021 26.3437 10.521 26.2626C10.4399 26.1815 10.3944 26.0715 10.3944 25.9568C10.3944 25.8421 10.4399 25.7321 10.521 25.651C10.6021 25.5699 10.7121 25.5244 10.8268 25.5244H19.4755C19.5902 25.5244 19.7002 25.5699 19.7812 25.651C19.8623 25.7321 19.9079 25.8421 19.9079 25.9568C19.9079 26.0715 19.8623 26.1815 19.7812 26.2626C19.7002 26.3437 19.5902 26.3892 19.4755 26.3892Z" fill="white"/>
<path d="M5.67397 13.9724C5.55929 13.9723 5.44932 13.9268 5.36824 13.8457L4.43506 12.9125C4.39375 12.8726 4.36081 12.8249 4.33815 12.7721C4.31548 12.7193 4.30355 12.6626 4.30306 12.6052C4.30256 12.5478 4.3135 12.4908 4.33524 12.4377C4.35698 12.3845 4.38909 12.3362 4.4297 12.2956C4.4703 12.255 4.51858 12.2229 4.57172 12.2012C4.62487 12.1794 4.68181 12.1685 4.73923 12.169C4.79665 12.1695 4.85339 12.1814 4.90615 12.2041C4.95891 12.2268 5.00662 12.2597 5.04651 12.301L5.67397 12.928L7.80154 10.8009C7.88309 10.7221 7.99233 10.6785 8.10571 10.6795C8.21909 10.6805 8.32755 10.726 8.40773 10.8062C8.4879 10.8863 8.53338 10.9948 8.53437 11.1082C8.53535 11.2216 8.49177 11.3308 8.413 11.4124L5.9797 13.8457C5.89862 13.9268 5.78865 13.9723 5.67397 13.9724Z" fill="white"/>
<path d="M5.67394 18.6636C5.55926 18.6636 5.44929 18.618 5.36821 18.5369L4.43502 17.6037C4.36231 17.5211 4.32384 17.4139 4.32744 17.3039C4.33104 17.1939 4.37645 17.0894 4.45441 17.0117C4.53237 16.934 4.63701 16.889 4.74702 16.8858C4.85703 16.8826 4.96412 16.9214 5.04648 16.9944L5.67394 17.6219L7.80151 15.4943C7.88307 15.4155 7.9923 15.372 8.10569 15.3729C8.21907 15.3739 8.32753 15.4194 8.40771 15.4996C8.48788 15.5798 8.53336 15.6882 8.53435 15.8016C8.53533 15.915 8.49174 16.0242 8.41297 16.1058L5.97967 18.5391C5.89824 18.6194 5.78831 18.6641 5.67394 18.6636Z" fill="white"/>
<path d="M5.67397 22.923C5.61716 22.9232 5.56088 22.912 5.5084 22.8903C5.45592 22.8685 5.40828 22.8366 5.36824 22.7963L4.43505 21.8631C4.35628 21.7816 4.31269 21.6723 4.31368 21.5589C4.31466 21.4456 4.36014 21.3371 4.44032 21.2569C4.52049 21.1767 4.62895 21.1313 4.74233 21.1303C4.85572 21.1293 4.96495 21.1729 5.04651 21.2517L5.67397 21.8813L7.80153 19.7537C7.88309 19.6749 7.99232 19.6314 8.1057 19.6323C8.21908 19.6333 8.32754 19.6788 8.40772 19.759C8.4879 19.8392 8.53337 19.9476 8.53436 20.061C8.53535 20.1744 8.49176 20.2836 8.41299 20.3652L5.97969 22.7985C5.93947 22.8384 5.89175 22.8699 5.83928 22.8913C5.7868 22.9127 5.73062 22.9234 5.67397 22.923Z" fill="white"/>
<path d="M5.67397 27.6141C5.61716 27.6142 5.56088 27.6031 5.5084 27.5814C5.45592 27.5596 5.40828 27.5277 5.36824 27.4874L4.43505 26.5546C4.35628 26.4731 4.31269 26.3638 4.31368 26.2504C4.31466 26.1371 4.36014 26.0286 4.44032 25.9484C4.52049 25.8682 4.62895 25.8228 4.74233 25.8218C4.85572 25.8208 4.96495 25.8644 5.04651 25.9432L5.67397 26.5702L7.80153 24.443C7.88309 24.3643 7.99232 24.3207 8.1057 24.3217C8.21908 24.3227 8.32754 24.3681 8.40772 24.4483C8.4879 24.5285 8.53337 24.6369 8.53436 24.7503C8.53535 24.8637 8.49176 24.9729 8.41299 25.0545L5.97969 27.4874C5.93965 27.5277 5.89201 27.5596 5.83953 27.5814C5.78705 27.6031 5.73077 27.6142 5.67397 27.6141Z" fill="white"/>
<path d="M29.8379 26.4176H25.063C24.9483 26.4176 24.8383 26.3721 24.7572 26.291C24.6761 26.2099 24.6305 26.0999 24.6305 25.9852V10.4825C24.6308 10.2275 24.7322 9.983 24.9125 9.80269C25.0928 9.62238 25.3373 9.52098 25.5923 9.52075H29.3086C29.5636 9.52098 29.8081 9.62238 29.9884 9.80269C30.1687 9.983 30.2701 10.2275 30.2703 10.4825V25.9852C30.2703 26.0999 30.2247 26.2099 30.1437 26.291C30.0626 26.3721 29.9526 26.4176 29.8379 26.4176ZM25.4954 25.5528H29.4054V10.4825C29.4054 10.4568 29.3952 10.4322 29.3771 10.414C29.3589 10.3958 29.3343 10.3856 29.3086 10.3856H25.5923C25.5666 10.3856 25.5419 10.3958 25.5238 10.414C25.5056 10.4322 25.4954 10.4568 25.4954 10.4825V25.5528Z" fill="white"/>
<path d="M27.4504 31.1461C27.3705 31.146 27.2921 31.1238 27.224 31.0819C27.1559 31.04 27.1007 30.98 27.0647 30.9086L24.6768 26.1804C24.6435 26.1145 24.6276 26.0411 24.6307 25.9673C24.6338 25.8935 24.6557 25.8217 24.6945 25.7588C24.7332 25.6958 24.7874 25.6439 24.8519 25.6079C24.9164 25.5718 24.9891 25.5529 25.063 25.553H29.8379C29.9118 25.5529 29.9844 25.5718 30.0489 25.6079C30.1134 25.6439 30.1676 25.6958 30.2064 25.7588C30.2451 25.8217 30.267 25.8935 30.2701 25.9673C30.2732 26.0411 30.2574 26.1145 30.224 26.1804L27.8366 30.9086C27.8005 30.9801 27.7453 31.0401 27.6771 31.082C27.6089 31.1239 27.5304 31.1461 27.4504 31.1461ZM25.7639 26.4178L27.4504 29.7545L29.1369 26.4178H25.7639Z" fill="white"/>
<path d="M29.8379 14.8003H25.063C24.9483 14.8003 24.8383 14.7547 24.7572 14.6736C24.6761 14.5925 24.6305 14.4825 24.6305 14.3679C24.6305 14.2532 24.6761 14.1432 24.7572 14.0621C24.8383 13.981 24.9483 13.9354 25.063 13.9354H29.8379C29.9526 13.9354 30.0626 13.981 30.1437 14.0621C30.2247 14.1432 30.2703 14.2532 30.2703 14.3679C30.2703 14.4825 30.2247 14.5925 30.1437 14.6736C30.0626 14.7547 29.9526 14.8003 29.8379 14.8003Z" fill="white"/>
<path d="M27.4504 26.4176C27.3357 26.4176 27.2257 26.372 27.1446 26.2909C27.0635 26.2098 27.018 26.0998 27.018 25.9851V14.3679C27.018 14.2532 27.0635 14.1432 27.1446 14.0621C27.2257 13.981 27.3357 13.9354 27.4504 13.9354C27.5651 13.9354 27.6751 13.981 27.7562 14.0621C27.8373 14.1432 27.8829 14.2532 27.8829 14.3679V25.9851C27.8829 26.0998 27.8373 26.2098 27.7562 26.2909C27.6751 26.372 27.5651 26.4176 27.4504 26.4176Z" fill="white"/>
</svg>
