<svg width="725" height="441" viewBox="0 0 725 441" fill="none" xmlns="http://www.w3.org/2000/svg">
<path opacity="0.07" fill-rule="evenodd" clip-rule="evenodd" d="M195.41 64.3644C249.512 4.43699 361.978 -17.7691 477.543 15.4399C621.382 56.7744 715.551 168.304 687.877 264.549C664.113 347.194 558.233 391.695 437.711 376.45C383.43 421.4 290.431 436.529 195.582 409.273C64.2079 371.521 -20.9652 266.75 5.34226 175.26C25.1363 106.421 102.403 64.7155 195.41 64.3644Z" fill="url(#paint0_linear_1_238)"/>
<g opacity="0.2">
<path fill-rule="evenodd" clip-rule="evenodd" d="M98.1476 319.351H89.4743V431.763H98.1476V319.351Z" fill="#8CA4D4"/>
<path fill-rule="evenodd" clip-rule="evenodd" d="M127.059 431.727H60.5633V440.4H127.059V431.727Z" fill="#8CA4D4"/>
<path fill-rule="evenodd" clip-rule="evenodd" d="M151.427 310.713H35.7823V319.387H151.427V310.713Z" fill="#8CA4D4"/>
<mask id="mask0_1_238" style="mask-type:alpha" maskUnits="userSpaceOnUse" x="35" y="310" width="117" height="10">
<path fill-rule="evenodd" clip-rule="evenodd" d="M151.427 310.713H35.7823V319.387H151.427V310.713Z" fill="white"/>
</mask>
<g mask="url(#mask0_1_238)">
</g>
</g>
<path fill-rule="evenodd" clip-rule="evenodd" d="M117.146 310.713L105.009 250.826L34.9563 252.065L46.9337 310.713H117.146Z" fill="#A1B8E3"/>
<path fill-rule="evenodd" clip-rule="evenodd" d="M151.427 307.347H42.4003V311.127H148.122L151.427 307.347Z" fill="#A1B8E3"/>
<path fill-rule="evenodd" clip-rule="evenodd" d="M113.016 311.126L100.879 250.826L30.8262 252.065L42.3906 311.126H113.016Z" fill="url(#paint1_linear_1_238)"/>
<path fill-rule="evenodd" clip-rule="evenodd" d="M113.016 311.126L100.879 250.826L30.8262 252.065L42.3906 311.126H113.016Z" fill="url(#paint2_linear_1_238)"/>
<mask id="mask1_1_238" style="mask-type:alpha" maskUnits="userSpaceOnUse" x="30" y="250" width="84" height="62">
<path fill-rule="evenodd" clip-rule="evenodd" d="M113.016 311.126L100.879 250.826L30.8262 252.065L42.3906 311.126H113.016Z" fill="white"/>
</mask>
<g mask="url(#mask1_1_238)">
<path fill-rule="evenodd" clip-rule="evenodd" d="M71.3017 275.194C67.8801 275.194 65.1064 277.505 65.1064 280.357C65.1064 283.208 67.8801 285.519 71.3017 285.519C74.7232 285.519 77.4969 283.208 77.4969 280.357C77.4969 277.505 74.7232 275.194 71.3017 275.194Z" fill="#A1B8E3"/>
</g>
<g opacity="0.5">
<path fill-rule="evenodd" clip-rule="evenodd" d="M682.506 89.4269C802.032 214.993 626.384 392.602 519.805 259.184C340.265 34.429 187.379 203.311 187.379 203.311" fill="black" fill-opacity="0.01"/>
<path d="M682.506 89.4269C802.032 214.993 626.384 392.602 519.805 259.184C340.265 34.429 187.379 203.311 187.379 203.311" stroke="#8CA4D4" stroke-width="2.44387" stroke-linecap="round" stroke-dasharray="2.44 9.78"/>
</g>
<path fill-rule="evenodd" clip-rule="evenodd" d="M196.66 224.833L186.478 211.532L153.475 232.183L178.754 203.131L166.465 191.58L135.569 245.834L196.66 224.833Z" fill="url(#paint3_linear_1_238)"/>
<path fill-rule="evenodd" clip-rule="evenodd" d="M186.829 211.882L179.105 210.832L152.07 233.233L186.829 211.882Z" fill="#E1A846"/>
<path fill-rule="evenodd" clip-rule="evenodd" d="M179.456 210.832L178.403 203.131L152.772 232.533L179.456 210.832Z" fill="#E6B052"/>
<path fill-rule="evenodd" clip-rule="evenodd" d="M502.882 439.388C447.139 439.388 401.95 430.307 401.95 419.104C401.95 407.902 447.139 398.82 502.882 398.82C558.625 398.82 603.813 407.902 603.813 419.104C603.813 430.307 558.625 439.388 502.882 439.388Z" fill="url(#paint4_radial_1_238)"/>
<path fill-rule="evenodd" clip-rule="evenodd" d="M572.738 406.533C510.884 436.205 420.069 432.285 379.332 351.764C352.418 299.953 409.84 237.914 472.914 194.775C529.524 156.058 579.875 147.278 609.418 169.075C612.792 171.564 618.789 171.075 621.513 174.461C696.5 260.055 634.591 376.861 572.738 406.533Z" fill="url(#paint5_radial_1_238)"/>
<path fill-rule="evenodd" clip-rule="evenodd" d="M534.531 332.398C468.385 373.731 400.071 378.247 377.101 341.488C355.789 301.774 407.493 229.949 473.639 188.616C539.785 147.284 597.417 140.732 620.387 177.491C643.356 214.25 600.677 291.065 534.531 332.398Z" fill="url(#paint6_radial_1_238)"/>
<g filter="url(#filter0_f_1_238)">
<path fill-rule="evenodd" clip-rule="evenodd" d="M519.582 303.402C489.924 321.945 459.294 323.972 448.995 307.48C439.439 289.663 462.622 257.439 492.28 238.896C521.938 220.353 547.779 217.414 558.078 233.905C568.377 250.397 549.241 284.859 519.582 303.402Z" fill="#94B0D7"/>
</g>
<path fill-rule="evenodd" clip-rule="evenodd" d="M329.007 424.313C329.974 419.906 331.428 416.628 329.974 410.679C328.52 404.73 311.788 401.358 309.677 403.264C307.566 405.169 307.91 406.189 299.547 410.63C291.184 415.072 267.214 420.237 262.083 425.999C256.952 431.76 255.997 435.57 266.661 435.57C271.672 435.57 293.621 435.57 299.644 435.57C305.564 433.424 307.555 432.268 310.874 430.282C311.551 432.771 310.874 434.89 310.874 434.89H325.079C325.079 434.89 328.041 428.72 329.007 424.313Z" fill="url(#paint7_linear_1_238)"/>
<mask id="mask2_1_238" style="mask-type:alpha" maskUnits="userSpaceOnUse" x="258" y="402" width="73" height="34">
<path fill-rule="evenodd" clip-rule="evenodd" d="M329.007 424.313C329.974 419.906 331.428 416.628 329.974 410.679C328.52 404.73 311.788 401.358 309.677 403.264C307.566 405.169 307.91 406.189 299.547 410.63C291.184 415.072 267.214 420.237 262.083 425.999C256.952 431.76 255.997 435.57 266.661 435.57C271.672 435.57 293.621 435.57 299.644 435.57C305.564 433.424 307.555 432.268 310.874 430.282C311.551 432.771 310.874 434.89 310.874 434.89H325.079C325.079 434.89 328.041 428.72 329.007 424.313Z" fill="white"/>
</mask>
<g mask="url(#mask2_1_238)">
<g opacity="0.2">
<path fill-rule="evenodd" clip-rule="evenodd" d="M328.972 431.55C325.911 423.665 313.984 408.955 310.529 404.167C307.073 399.38 333.428 409.81 333.428 409.81C333.428 409.81 332.032 439.435 328.972 431.55Z" fill="#3D82F0" style="mix-blend-mode:multiply"/>
</g>
</g>
<path fill-rule="evenodd" clip-rule="evenodd" d="M301.2 304.583C304.347 301.612 307.272 299.798 309.33 294.299C311.389 288.801 299.925 277.11 297.22 277.482C294.514 277.854 294.236 278.848 285.198 277.86C276.159 276.872 259.993 265.879 252.807 267.679C245.622 269.48 239.172 269.516 247.639 275.264C251.618 277.966 267.025 294.43 271.807 297.676C277.666 299.167 279.871 299.324 283.578 299.539C282.772 301.876 281.09 303.191 281.09 303.191L292.368 310.848C292.368 310.848 298.052 307.554 301.2 304.583Z" fill="url(#paint8_linear_1_238)"/>
<mask id="mask3_1_238" style="mask-type:alpha" maskUnits="userSpaceOnUse" x="243" y="267" width="67" height="44">
<path fill-rule="evenodd" clip-rule="evenodd" d="M301.2 304.583C304.347 301.612 307.272 299.798 309.33 294.299C311.389 288.801 299.925 277.11 297.22 277.482C294.514 277.854 294.236 278.848 285.198 277.86C276.159 276.872 259.993 265.879 252.807 267.679C245.622 269.48 239.172 269.516 247.639 275.264C251.618 277.966 267.025 294.43 271.807 297.676C277.666 299.167 279.871 299.324 283.578 299.539C282.772 301.876 281.09 303.191 281.09 303.191L292.368 310.848C292.368 310.848 298.052 307.554 301.2 304.583Z" fill="white"/>
</mask>
<g mask="url(#mask3_1_238)">
<g opacity="0.2">
<path fill-rule="evenodd" clip-rule="evenodd" d="M296.543 309.687C301.278 299.877 296.401 277.744 298.561 275.784C300.721 273.824 311.282 291.623 311.282 291.623C311.282 291.623 316.306 296.606 308.234 304.056C300.161 311.507 291.808 319.497 296.543 309.687Z" fill="#617FC8" style="mix-blend-mode:multiply"/>
</g>
</g>
<g filter="url(#filter1_i_1_238)">
<path fill-rule="evenodd" clip-rule="evenodd" d="M505.957 195.747C483.99 184.051 471.473 149.906 462.4 140.305C453.328 130.704 449.322 149.072 450.821 154.48C452.321 159.888 463.378 196.236 486.458 225.591C486.458 244.769 508.794 211.135 505.957 195.747Z" fill="url(#paint9_linear_1_238)"/>
</g>
<path fill-rule="evenodd" clip-rule="evenodd" d="M515.353 157.003C515.353 157.003 463.287 136.412 456.248 137.773C449.209 139.135 470.246 163.129 474.551 165.065C478.855 167.001 484.705 171.725 491.179 171.893C497.652 172.061 512.532 175.267 512.532 175.267L515.353 157.003Z" fill="url(#paint10_linear_1_238)"/>
<g filter="url(#filter2_i_1_238)">
<path fill-rule="evenodd" clip-rule="evenodd" d="M502.497 311.333C496.1 302.702 480.437 284.698 446.719 278.14C413.001 271.581 382.033 265.457 325.192 282.366C320.512 337.247 315.179 392.504 309.797 403.694C313.903 408.689 328.732 412.506 337.432 412.506C340.588 400.15 350.478 370.381 355.502 355.657C360.527 340.933 362.308 322.655 361.337 316.21C378.467 321.077 413.555 335.869 425.857 340.251C438.16 344.633 480.369 358.525 494.34 347.341C508.311 336.157 508.895 319.964 502.497 311.333Z" fill="url(#paint11_linear_1_238)"/>
</g>
<mask id="mask4_1_238" style="mask-type:alpha" maskUnits="userSpaceOnUse" x="309" y="271" width="198" height="142">
<path fill-rule="evenodd" clip-rule="evenodd" d="M502.497 311.333C496.1 302.702 480.437 284.698 446.719 278.14C413.001 271.581 382.033 265.457 325.192 282.366C320.512 337.247 315.179 392.504 309.797 403.694C313.903 408.689 328.732 412.506 337.432 412.506C340.588 400.15 350.478 370.381 355.502 355.657C360.527 340.933 362.308 322.655 361.337 316.21C378.467 321.077 413.555 335.869 425.857 340.251C438.16 344.633 480.369 358.525 494.34 347.341C508.311 336.157 508.895 319.964 502.497 311.333Z" fill="white"/>
</mask>
<g mask="url(#mask4_1_238)">
<g opacity="0.3">
<path fill-rule="evenodd" clip-rule="evenodd" d="M386.277 326.225C386.277 318.577 366.91 278.211 361.725 273.896C356.539 269.581 371.939 270.222 371.939 270.222C371.939 270.222 407.023 306.637 411.631 326.225C416.238 345.812 386.277 333.873 386.277 326.225Z" fill="url(#paint12_linear_1_238)" style="mix-blend-mode:multiply"/>
</g>
</g>
<path fill-rule="evenodd" clip-rule="evenodd" d="M544.7 200.455C546.396 191.95 549.667 177.041 550.32 173.855C550.974 170.669 519.333 181.673 519.333 181.673L515.354 202.528L510.8 237.798C510.8 237.798 543.004 208.961 544.7 200.455Z" fill="url(#paint13_linear_1_238)"/>
<mask id="mask5_1_238" style="mask-type:alpha" maskUnits="userSpaceOnUse" x="510" y="173" width="41" height="65">
<path fill-rule="evenodd" clip-rule="evenodd" d="M544.7 200.455C546.396 191.95 549.667 177.041 550.32 173.855C550.974 170.669 519.333 181.673 519.333 181.673L515.354 202.528L510.8 237.798C510.8 237.798 543.004 208.961 544.7 200.455Z" fill="white"/>
</mask>
<g mask="url(#mask5_1_238)">
<g opacity="0.2">
<path fill-rule="evenodd" clip-rule="evenodd" d="M548.594 174.741C548.594 177.943 536.587 191.636 530.101 195.39C523.614 199.144 511.928 198.796 511.928 198.796L513.709 180.357L548.594 171.548C548.594 171.548 548.594 171.539 548.594 174.741Z" fill="#7890CB" style="mix-blend-mode:multiply"/>
</g>
</g>
<path fill-rule="evenodd" clip-rule="evenodd" d="M517.109 193.192C517.109 193.192 505.095 195.147 504.268 196.65C496.455 202.325 488.939 219.213 485.729 227.962C482.52 236.711 476.365 245.747 470.817 252.772C465.269 259.797 462.608 261.246 455.339 266.444C448.07 271.642 445.399 275.766 449.513 279.641C453.627 283.516 477.317 282.011 494.181 303.081C508.913 309.121 508.895 311.33 513.272 298.279C517.65 285.229 553.642 252.599 559.479 248C565.317 243.401 563.062 238.981 564.533 224.894C566.005 210.807 576.619 199.385 567.691 199.385C560.656 202.004 553.802 196.65 550.709 196.65C539.438 199.456 536.872 210.549 532.193 208.223C527.514 205.896 524.519 205.896 524.519 205.896C523.427 208.111 523.076 211.905 521.984 214.119C520.892 216.334 516.325 220.776 514.295 224.894L517.883 212.911L516.882 205.746L517.109 193.192Z" fill="white"/>
<path fill-rule="evenodd" clip-rule="evenodd" d="M517.109 193.192C517.109 193.192 505.095 195.147 504.268 196.65C496.455 202.325 488.939 219.213 485.729 227.962C482.52 236.711 476.365 245.747 470.817 252.772C465.269 259.797 462.608 261.246 455.339 266.444C448.07 271.642 445.399 275.766 449.513 279.641C453.627 283.516 477.317 282.011 494.181 303.081C508.913 309.121 508.895 311.33 513.272 298.279C517.65 285.229 553.642 252.599 559.479 248C565.317 243.401 563.062 238.981 564.533 224.894C566.005 210.807 576.619 199.385 567.691 199.385C560.656 202.004 553.802 196.65 550.709 196.65C539.438 199.456 536.872 210.549 532.193 208.223C527.514 205.896 524.519 205.896 524.519 205.896C523.427 208.111 523.076 211.905 521.984 214.119C520.892 216.334 516.325 220.776 514.295 224.894L517.883 212.911L516.882 205.746L517.109 193.192Z" fill="url(#paint14_linear_1_238)"/>
<mask id="mask6_1_238" style="mask-type:alpha" maskUnits="userSpaceOnUse" x="447" y="193" width="125" height="115">
<path fill-rule="evenodd" clip-rule="evenodd" d="M517.109 193.192C517.109 193.192 505.095 195.147 504.268 196.65C496.455 202.325 488.939 219.213 485.729 227.962C482.52 236.711 476.365 245.747 470.817 252.772C465.269 259.797 462.608 261.246 455.339 266.444C448.07 271.642 445.399 275.766 449.513 279.641C453.627 283.516 477.317 282.011 494.181 303.081C508.913 309.121 508.895 311.33 513.272 298.279C517.65 285.229 553.642 252.599 559.479 248C565.317 243.401 563.062 238.981 564.533 224.894C566.005 210.807 576.619 199.385 567.691 199.385C560.656 202.004 553.802 196.65 550.709 196.65C539.438 199.456 536.872 210.549 532.193 208.223C527.514 205.896 524.519 205.896 524.519 205.896C523.427 208.111 523.076 211.905 521.984 214.119C520.892 216.334 516.325 220.776 514.295 224.894L517.883 212.911L516.882 205.746L517.109 193.192Z" fill="white"/>
<path fill-rule="evenodd" clip-rule="evenodd" d="M517.109 193.192C517.109 193.192 505.095 195.147 504.268 196.65C496.455 202.325 488.939 219.213 485.729 227.962C482.52 236.711 476.365 245.747 470.817 252.772C465.269 259.797 462.608 261.246 455.339 266.444C448.07 271.642 445.399 275.766 449.513 279.641C453.627 283.516 477.317 282.011 494.181 303.081C508.913 309.121 508.895 311.33 513.272 298.279C517.65 285.229 553.642 252.599 559.479 248C565.317 243.401 563.062 238.981 564.533 224.894C566.005 210.807 576.619 199.385 567.691 199.385C560.656 202.004 553.802 196.65 550.709 196.65C539.438 199.456 536.872 210.549 532.193 208.223C527.514 205.896 524.519 205.896 524.519 205.896C523.427 208.111 523.076 211.905 521.984 214.119C520.892 216.334 516.325 220.776 514.295 224.894L517.883 212.911L516.882 205.746L517.109 193.192Z" stroke="white"/>
</mask>
<g mask="url(#mask6_1_238)">
<g opacity="0.6">
<mask id="path-36-outside-1_1_238" maskUnits="userSpaceOnUse" x="462.812" y="223.351" width="56" height="61" fill="black">
<rect fill="white" x="462.812" y="223.351" width="56" height="61"/>
<path fill-rule="evenodd" clip-rule="evenodd" d="M516.323 224.817C515.261 226.946 503.64 247.306 501.171 250.234C498.702 253.161 490.607 261.32 487.485 264.408C484.363 267.496 465.229 279.657 465.002 283.47"/>
</mask>
<path fill-rule="evenodd" clip-rule="evenodd" d="M516.323 224.817C515.261 226.946 503.64 247.306 501.171 250.234C498.702 253.161 490.607 261.32 487.485 264.408C484.363 267.496 465.229 279.657 465.002 283.47" fill="black" fill-opacity="0.01"/>
<path d="M501.171 250.234L502.665 251.494L502.665 251.494L501.171 250.234ZM487.485 264.408L486.11 263.018L486.11 263.018L487.485 264.408ZM518.072 225.69C517.506 226.825 514.297 232.511 510.962 238.213C509.285 241.08 507.559 243.981 506.094 246.354C504.666 248.667 503.396 250.628 502.665 251.494L499.676 248.973C500.181 248.375 501.289 246.694 502.767 244.299C504.209 241.964 505.918 239.093 507.587 236.239C510.946 230.497 514.078 224.938 514.573 223.945L518.072 225.69ZM502.665 251.494C500.126 254.504 491.958 262.733 488.86 265.798L486.11 263.018C489.256 259.906 497.277 251.818 499.677 248.973L502.665 251.494ZM488.86 265.798C487.951 266.698 486.023 268.137 483.841 269.732C481.584 271.381 478.92 273.289 476.331 275.231C473.74 277.175 471.294 279.101 469.495 280.756C468.592 281.587 467.901 282.305 467.444 282.889C466.917 283.562 466.943 283.756 466.953 283.586L463.05 283.354C463.117 282.231 463.791 281.211 464.366 280.477C465.011 279.654 465.876 278.772 466.848 277.879C468.798 276.085 471.374 274.062 473.985 272.104C476.599 270.142 479.318 268.194 481.534 266.575C483.824 264.901 485.459 263.662 486.11 263.018L488.86 265.798Z" fill="#D9E8FF" mask="url(#path-36-outside-1_1_238)"/>
</g>
<path opacity="0.3" fill-rule="evenodd" clip-rule="evenodd" d="M531.033 220.996C531.033 220.996 525.699 211.295 522.592 211.295C519.486 211.295 523.68 201.861 523.68 201.861L533.366 209.186L531.033 220.996Z" fill="#CCDFFD"/>
</g>
<path fill-rule="evenodd" clip-rule="evenodd" d="M450.863 274.308C433.157 258.055 382.476 226.6 353.575 221.797C337.018 224.551 293.931 271.251 293.931 271.251C295.874 273.298 300.995 291.45 309.083 297.156C329.454 280.246 350.691 272.35 356.394 263.606C363.508 267.937 381.793 280.583 392.311 299.161C402.828 317.74 409.805 338.906 421.791 339.436C433.777 339.966 450.679 341.335 466.25 331.317C475.293 325.498 501.327 312.529 488.679 304.031C481.431 299.161 458.285 281.121 450.863 274.308Z" fill="url(#paint15_linear_1_238)"/>
<path fill-rule="evenodd" clip-rule="evenodd" d="M519.88 138.666C518.681 141.693 512.101 154.976 511.467 158.286C510.833 161.598 504.571 183.683 508.301 187.084C512.032 190.485 523.217 192.207 526.343 191.118C529.469 190.029 536.189 189.331 538.806 184.738C540.818 181.207 547.209 173.012 548.886 173.481C549.498 174.74 551.633 176.085 552.702 175.221C557.321 171.487 561.28 167.444 559.401 158.286C557.521 149.129 550.932 144.612 543.868 141.639C536.803 138.666 521.079 135.64 519.88 138.666Z" fill="url(#paint16_linear_1_238)"/>
<path fill-rule="evenodd" clip-rule="evenodd" d="M600.64 189.464C592.082 192.929 564.366 179.136 555.571 180.361C547.486 181.487 557.744 168.844 560.78 166.606C563.816 164.369 624.523 165.383 627.71 170.052C630.896 174.722 607.737 186.59 600.64 189.464Z" fill="url(#paint17_linear_1_238)"/>
<mask id="mask7_1_238" style="mask-type:alpha" maskUnits="userSpaceOnUse" x="552" y="165" width="77" height="26">
<path fill-rule="evenodd" clip-rule="evenodd" d="M600.64 189.464C592.082 192.929 564.366 179.136 555.571 180.361C547.486 181.487 557.744 168.844 560.78 166.606C563.816 164.369 624.523 165.383 627.71 170.052C630.896 174.722 607.737 186.59 600.64 189.464Z" fill="white"/>
</mask>
<g mask="url(#mask7_1_238)">
<path opacity="0.5" fill-rule="evenodd" clip-rule="evenodd" d="M617.49 170.488C615.691 171.142 579.19 187.049 570.159 184.845C561.128 182.642 592.664 193.174 592.664 193.174C592.664 193.174 619.29 169.833 617.49 170.488Z" fill="#6B84C2"/>
</g>
<g filter="url(#filter3_i_1_238)">
<path fill-rule="evenodd" clip-rule="evenodd" d="M545.189 158.336C545.189 158.336 549.32 152.06 546.127 145.836C542.933 139.611 526.076 147.913 512.424 132.566C498.772 117.219 510.902 96.5075 524.938 100.547C538.973 104.586 535.531 111.821 532.987 117.219C530.443 122.616 543.534 124.643 552.895 128.442C562.257 132.242 569.898 142.465 568.248 158.336C566.599 174.208 551.874 187.204 547.188 189.595C548.55 180.216 548.611 175.906 548.611 173.294C553.987 175.778 560.248 163.46 556.602 160.22C549.639 154.03 546.127 168.129 546.127 168.129C546.127 168.129 545.189 166.121 543.534 164.219C544.164 160.823 545.189 158.336 545.189 158.336Z" fill="url(#paint18_linear_1_238)"/>
</g>
<path fill-rule="evenodd" clip-rule="evenodd" d="M516.817 205.411C512.543 206.929 511.725 214.824 510.991 217.05C510.257 219.276 514.071 199.6 514.071 199.6C515.413 201.451 518.284 188.886 517.744 190.729C516.293 195.684 517.509 201.297 516.817 205.411Z" fill="#CCDFFD"/>
<path fill-rule="evenodd" clip-rule="evenodd" d="M530.763 225.302C530.763 218.309 527.983 209.14 524.551 205.868C529.528 206.175 544.17 197.427 545.733 192.551C547.296 187.674 547.587 186.977 547.587 186.977C547.587 186.977 550.601 192.81 550.601 196.509C548.468 204.534 538.953 218.465 530.763 225.302Z" fill="url(#paint19_linear_1_238)"/>
<g filter="url(#filter4_i_1_238)">
<path fill-rule="evenodd" clip-rule="evenodd" d="M573.548 197.464C588.004 189.518 616.881 166.925 624.471 168.769C632.061 170.613 630.091 174.039 630.091 181.896C630.091 189.753 590.424 216.286 584.317 229.415C581.703 235.035 575.004 248.917 563.015 246.655C551.025 244.393 554.662 232.48 557.246 222.87C560.284 211.575 564.646 202.358 573.548 197.464Z" fill="url(#paint20_linear_1_238)"/>
</g>
<path fill-rule="evenodd" clip-rule="evenodd" d="M534.68 158.621C532.15 159.294 528.988 158.801 527.297 156.956L534.68 158.621Z" fill="black" fill-opacity="0.01"/>
<path d="M534.68 158.621C532.15 159.294 528.988 158.801 527.297 156.956" stroke="#143B8C" stroke-width="1.46632" stroke-linecap="round"/>
<path fill-rule="evenodd" clip-rule="evenodd" d="M514.381 153.244C512.196 153.917 509.465 153.425 508.005 151.58L514.381 153.244Z" fill="black" fill-opacity="0.01"/>
<path d="M514.381 153.244C512.196 153.917 509.465 153.425 508.005 151.58" stroke="#143B8C" stroke-width="1.46632" stroke-linecap="round"/>
<path fill-rule="evenodd" clip-rule="evenodd" d="M540.273 154.657L537.555 166.66L522.414 163.026L524.695 150.524L540.273 154.657Z" fill="black" fill-opacity="0.01" stroke="#143B8C" stroke-width="1.95509"/>
<path fill-rule="evenodd" clip-rule="evenodd" d="M518.146 148.523L515.681 160.788L504.344 157.536L506.413 145.262L518.146 148.523Z" fill="black" fill-opacity="0.01" stroke="#143B8C" stroke-width="1.95509"/>
<path fill-rule="evenodd" clip-rule="evenodd" d="M540.578 156.166L549.505 158.61L548.013 161.59L538.364 163.867L540.578 156.166Z" fill="#143B8C"/>
<path fill-rule="evenodd" clip-rule="evenodd" d="M524.193 154.309L517.381 152.211L516.632 155.807L523.704 157.779L524.193 154.309Z" fill="#143B8C"/>
<path fill-rule="evenodd" clip-rule="evenodd" d="M534.531 332.398C468.385 373.731 400.071 378.248 377.101 341.488C349.515 287.901 444.104 311.088 510.25 269.755C576.396 228.423 574.761 193.922 620.387 177.491C643.356 214.25 600.677 291.065 534.531 332.398Z" fill="black" fill-opacity="0.01"/>
<mask id="mask8_1_238" style="mask-type:alpha" maskUnits="userSpaceOnUse" x="372" y="177" width="255" height="190">
<path fill-rule="evenodd" clip-rule="evenodd" d="M534.531 332.398C468.385 373.731 400.071 378.248 377.101 341.488C349.515 287.901 444.104 311.088 510.25 269.755C576.396 228.423 574.761 193.922 620.387 177.491C643.356 214.25 600.677 291.065 534.531 332.398Z" fill="white"/>
</mask>
<g mask="url(#mask8_1_238)">
<g filter="url(#filter5_i_1_238)">
<path fill-rule="evenodd" clip-rule="evenodd" d="M652.852 280.22C618.327 302.641 578.778 303.014 564.517 281.054C550.256 259.094 566.683 223.116 601.208 200.696C635.733 178.275 675.282 177.901 689.543 199.861C703.804 221.822 687.377 257.799 652.852 280.22Z" fill="#EEF5FF"/>
</g>
<g filter="url(#filter6_i_1_238)">
<path fill-rule="evenodd" clip-rule="evenodd" d="M531.731 369.585C506.287 357.721 498.377 320.833 514.064 287.193C529.75 253.554 563.093 235.902 588.536 247.766C613.98 259.631 621.89 296.519 606.203 330.159C590.517 363.798 557.175 381.45 531.731 369.585Z" fill="#EEF5FF"/>
</g>
<g filter="url(#filter7_i_1_238)">
<path fill-rule="evenodd" clip-rule="evenodd" d="M465.747 426.283C440.303 414.418 432.393 377.53 448.079 343.891C463.766 310.251 497.108 292.599 522.552 304.464C547.995 316.328 555.905 353.217 540.219 386.856C524.533 420.495 491.19 438.147 465.747 426.283Z" fill="#EEF5FF"/>
</g>
<g filter="url(#filter8_i_1_238)">
<path fill-rule="evenodd" clip-rule="evenodd" d="M342.576 445.345C317.132 433.481 309.222 396.592 324.909 362.953C340.595 329.313 373.937 311.661 399.381 323.526C424.825 335.39 432.735 372.279 417.048 405.918C401.362 439.558 368.019 457.21 342.576 445.345Z" fill="#EEF5FF"/>
</g>
<g filter="url(#filter9_i_1_238)">
<path fill-rule="evenodd" clip-rule="evenodd" d="M429.729 408.066C401.864 411.487 377.155 396.993 374.54 375.692C371.924 354.391 392.393 334.349 420.258 330.928C448.122 327.506 472.831 342.001 475.447 363.302C478.062 384.603 457.594 404.644 429.729 408.066Z" fill="#EEF5FF"/>
</g>
</g>
<path fill-rule="evenodd" clip-rule="evenodd" d="M506.397 227.53C506.397 227.53 494.828 225.342 493.441 223.786C492.054 222.23 484.219 240.206 484.219 240.206L488.023 244.525H497.091L506.397 227.53Z" fill="url(#paint21_linear_1_238)"/>
<path opacity="0.2" fill-rule="evenodd" clip-rule="evenodd" d="M639.494 424.725C620.058 424.725 604.302 428.117 604.302 432.301C604.302 436.485 620.058 439.877 639.494 439.877C658.929 439.877 674.685 436.485 674.685 432.301C674.685 428.117 658.929 424.725 639.494 424.725Z" fill="#BBCFF2"/>
<path fill-rule="evenodd" clip-rule="evenodd" d="M606.767 395.091C604.56 398.957 603.325 403.288 603.325 407.862C603.325 424.194 619.08 437.433 638.516 437.433C657.952 437.433 673.708 424.194 673.708 407.862C673.708 403.022 672.324 398.453 669.87 394.421C654.28 396.889 623.25 396.73 606.767 395.091Z" fill="url(#paint22_linear_1_238)"/>
<mask id="mask9_1_238" style="mask-type:alpha" maskUnits="userSpaceOnUse" x="603" y="394" width="71" height="44">
<path fill-rule="evenodd" clip-rule="evenodd" d="M606.767 395.091C604.56 398.957 603.325 403.288 603.325 407.862C603.325 424.194 619.08 437.433 638.516 437.433C657.952 437.433 673.708 424.194 673.708 407.862C673.708 403.022 672.324 398.453 669.87 394.421C654.28 396.889 623.25 396.73 606.767 395.091Z" fill="white"/>
</mask>
<g mask="url(#mask9_1_238)">
</g>
<path fill-rule="evenodd" clip-rule="evenodd" d="M638.272 388.556C620.59 388.556 606.257 391.948 606.257 396.132C606.257 400.316 620.59 403.708 638.272 403.708C655.953 403.708 670.286 400.316 670.286 396.132C670.286 391.948 655.953 388.556 638.272 388.556Z" fill="url(#paint23_linear_1_238)"/>
<mask id="mask10_1_238" style="mask-type:alpha" maskUnits="userSpaceOnUse" x="606" y="388" width="65" height="16">
<path fill-rule="evenodd" clip-rule="evenodd" d="M638.272 388.556C620.59 388.556 606.257 391.948 606.257 396.132C606.257 400.316 620.59 403.708 638.272 403.708C655.953 403.708 670.286 400.316 670.286 396.132C670.286 391.948 655.953 388.556 638.272 388.556Z" fill="white"/>
</mask>
<g mask="url(#mask10_1_238)">
</g>
<g filter="url(#filter10_i_1_238)">
<path fill-rule="evenodd" clip-rule="evenodd" d="M640.96 389.534C642.708 377.435 647.518 359.963 661.977 341.145C670.495 330.06 670.523 303.065 671.753 300.088C665.069 302.387 653.063 308.311 640.96 325.016C628.273 342.527 636.321 378.239 640.96 389.534Z" fill="url(#paint24_linear_1_238)"/>
</g>
<mask id="mask11_1_238" style="mask-type:alpha" maskUnits="userSpaceOnUse" x="634" y="300" width="38" height="90">
<path fill-rule="evenodd" clip-rule="evenodd" d="M640.96 389.534C642.708 377.435 647.518 359.963 661.977 341.145C670.495 330.06 670.523 303.065 671.753 300.088C665.069 302.387 653.063 308.311 640.96 325.016C628.273 342.527 636.321 378.239 640.96 389.534Z" fill="white"/>
</mask>
<g mask="url(#mask11_1_238)">
<g style="mix-blend-mode:multiply" opacity="0.5">
<path d="M641.976 383.493L653.714 327.945C644.765 343.071 641.442 359.468 641.976 383.493Z" fill="black" fill-opacity="0.01"/>
<path d="M641.976 383.493L653.714 327.945C644.765 343.071 641.442 359.468 641.976 383.493Z" stroke="#489C71" stroke-width="1.46632"/>
</g>
</g>
<g filter="url(#filter11_i_1_238)">
<path fill-rule="evenodd" clip-rule="evenodd" d="M640.906 401.953C646.307 393.313 655.851 381.605 673.21 372.112C683.436 366.52 692.532 345.943 694.471 344.086C688.599 343.593 677.445 344.077 662.595 352.75C647.027 361.842 641.163 391.78 640.906 401.953Z" fill="url(#paint25_linear_1_238)"/>
</g>
<mask id="mask12_1_238" style="mask-type:alpha" maskUnits="userSpaceOnUse" x="640" y="343" width="55" height="59">
<path fill-rule="evenodd" clip-rule="evenodd" d="M640.906 401.953C646.307 393.313 655.851 381.605 673.21 372.112C683.436 366.52 692.532 345.943 694.471 344.086C688.599 343.593 677.445 344.077 662.595 352.75C647.027 361.842 641.163 391.78 640.906 401.953Z" fill="white"/>
</mask>
<g mask="url(#mask12_1_238)">
<g style="mix-blend-mode:multiply" opacity="0.5">
<path d="M644.235 396.751L670.803 359.811C659.457 368.12 651.644 379.155 644.235 396.751Z" fill="black" fill-opacity="0.01"/>
<path d="M644.235 396.751L670.803 359.811C659.457 368.12 651.644 379.155 644.235 396.751Z" stroke="#489C71" stroke-width="1.46632"/>
</g>
</g>
<g filter="url(#filter12_i_1_238)">
<path fill-rule="evenodd" clip-rule="evenodd" d="M637.027 403.136C632.768 393.837 624.782 380.949 608.722 369.257C599.262 362.37 592.873 340.708 591.182 338.609C597.096 338.876 608.142 340.796 621.809 351.348C636.135 362.408 638.091 392.975 637.027 403.136Z" fill="url(#paint26_linear_1_238)"/>
</g>
<mask id="mask13_1_238" style="mask-type:alpha" maskUnits="userSpaceOnUse" x="591" y="338" width="47" height="66">
<path fill-rule="evenodd" clip-rule="evenodd" d="M637.027 403.136C632.768 393.837 624.782 380.949 608.722 369.257C599.262 362.37 592.873 340.708 591.182 338.609C597.096 338.876 608.142 340.796 621.809 351.348C636.135 362.408 638.091 392.975 637.027 403.136Z" fill="white"/>
</mask>
<g mask="url(#mask13_1_238)">
<g style="mix-blend-mode:multiply" opacity="0.5">
<path d="M614.335 357.166L636.029 397.42C630.928 378.918 624.573 366.911 614.335 357.166Z" fill="black" fill-opacity="0.01"/>
<path d="M614.335 357.166L636.029 397.42C630.928 378.918 624.573 366.911 614.335 357.166Z" stroke="#489C71" stroke-width="1.46632"/>
</g>
</g>
<g opacity="0.6">
<path fill-rule="evenodd" clip-rule="evenodd" d="M648.292 35.6616C631.555 35.6616 617.988 49.2292 617.988 65.9655C617.988 82.7019 631.555 96.2695 648.292 96.2695C665.028 96.2695 678.595 82.7019 678.595 65.9655C678.595 49.2292 665.028 35.6616 648.292 35.6616Z" fill="url(#paint27_linear_1_238)"/>
<mask id="mask14_1_238" style="mask-type:alpha" maskUnits="userSpaceOnUse" x="617" y="35" width="62" height="62">
<path fill-rule="evenodd" clip-rule="evenodd" d="M648.292 35.6616C631.555 35.6616 617.988 49.2292 617.988 65.9655C617.988 82.7019 631.555 96.2695 648.292 96.2695C665.028 96.2695 678.595 82.7019 678.595 65.9655C678.595 49.2292 665.028 35.6616 648.292 35.6616Z" fill="white"/>
</mask>
<g mask="url(#mask14_1_238)">
</g>
<mask id="path-80-inside-2_1_238" fill="white">
<path fill-rule="evenodd" clip-rule="evenodd" d="M647.922 45.2702V67.0742L637.944 77.0523"/>
</mask>
<path d="M644.989 45.2702C644.989 43.6505 646.302 42.3375 647.922 42.3375C649.542 42.3375 650.855 43.6505 650.855 45.2702H644.989ZM647.922 67.0742H650.855C650.855 67.852 650.546 68.5979 649.996 69.1479L647.922 67.0742ZM640.018 79.126C638.872 80.2712 637.015 80.2712 635.87 79.126C634.725 77.9807 634.725 76.1239 635.87 74.9786L640.018 79.126ZM650.855 45.2702V67.0742H644.989V45.2702H650.855ZM649.996 69.1479L640.018 79.126L635.87 74.9786L645.848 65.0005L649.996 69.1479Z" fill="white" mask="url(#path-80-inside-2_1_238)"/>
</g>
<defs>
<filter id="filter0_f_1_238" x="397.945" y="174.227" width="211.815" height="193.32" filterUnits="userSpaceOnUse" color-interpolation-filters="sRGB">
<feFlood flood-opacity="0" result="BackgroundImageFix"/>
<feBlend mode="normal" in="SourceGraphic" in2="BackgroundImageFix" result="shape"/>
<feGaussianBlur stdDeviation="24.4342" result="effect1_foregroundBlur_1_238"/>
</filter>
<filter id="filter1_i_1_238" x="450.514" y="137.573" width="55.6918" height="94.2603" filterUnits="userSpaceOnUse" color-interpolation-filters="sRGB">
<feFlood flood-opacity="0" result="BackgroundImageFix"/>
<feBlend mode="normal" in="SourceGraphic" in2="BackgroundImageFix" result="shape"/>
<feColorMatrix in="SourceAlpha" type="matrix" values="0 0 0 0 0 0 0 0 0 0 0 0 0 0 0 0 0 0 127 0" result="hardAlpha"/>
<feOffset dy="0.488773"/>
<feGaussianBlur stdDeviation="2.93264"/>
<feComposite in2="hardAlpha" operator="arithmetic" k2="-1" k3="1"/>
<feColorMatrix type="matrix" values="0 0 0 0 0.898039 0 0 0 0 0.941176 0 0 0 0 1 0 0 0 1 0"/>
<feBlend mode="normal" in2="shape" result="effect1_innerShadow_1_238"/>
</filter>
<filter id="filter2_i_1_238" x="309.797" y="271.438" width="204.44" height="143.023" filterUnits="userSpaceOnUse" color-interpolation-filters="sRGB">
<feFlood flood-opacity="0" result="BackgroundImageFix"/>
<feBlend mode="normal" in="SourceGraphic" in2="BackgroundImageFix" result="shape"/>
<feColorMatrix in="SourceAlpha" type="matrix" values="0 0 0 0 0 0 0 0 0 0 0 0 0 0 0 0 0 0 127 0" result="hardAlpha"/>
<feOffset dx="7.82037" dy="1.95509"/>
<feGaussianBlur stdDeviation="6.84282"/>
<feComposite in2="hardAlpha" operator="arithmetic" k2="-1" k3="1"/>
<feColorMatrix type="matrix" values="0 0 0 0 0.103708 0 0 0 0 0.317385 0 0 0 0 0.809604 0 0 0 1 0"/>
<feBlend mode="normal" in2="shape" result="effect1_innerShadow_1_238"/>
</filter>
<filter id="filter3_i_1_238" x="506.449" y="100.035" width="68.3783" height="95.4256" filterUnits="userSpaceOnUse" color-interpolation-filters="sRGB">
<feFlood flood-opacity="0" result="BackgroundImageFix"/>
<feBlend mode="normal" in="SourceGraphic" in2="BackgroundImageFix" result="shape"/>
<feColorMatrix in="SourceAlpha" type="matrix" values="0 0 0 0 0 0 0 0 0 0 0 0 0 0 0 0 0 0 127 0" result="hardAlpha"/>
<feOffset dx="6.35405" dy="5.86528"/>
<feGaussianBlur stdDeviation="4.39896"/>
<feComposite in2="hardAlpha" operator="arithmetic" k2="-1" k3="1"/>
<feColorMatrix type="matrix" values="0 0 0 0 0 0 0 0 0 0 0 0 0 0 0 0 0 0 0.139889 0"/>
<feBlend mode="normal" in2="shape" result="effect1_innerShadow_1_238"/>
</filter>
<filter id="filter4_i_1_238" x="554.635" y="164.752" width="81.5511" height="82.1497" filterUnits="userSpaceOnUse" color-interpolation-filters="sRGB">
<feFlood flood-opacity="0" result="BackgroundImageFix"/>
<feBlend mode="normal" in="SourceGraphic" in2="BackgroundImageFix" result="shape"/>
<feColorMatrix in="SourceAlpha" type="matrix" values="0 0 0 0 0 0 0 0 0 0 0 0 0 0 0 0 0 0 127 0" result="hardAlpha"/>
<feOffset dx="8.79791" dy="-3.91018"/>
<feGaussianBlur stdDeviation="2.93264"/>
<feComposite in2="hardAlpha" operator="arithmetic" k2="-1" k3="1"/>
<feColorMatrix type="matrix" values="0 0 0 0 0.898039 0 0 0 0 0.941176 0 0 0 0 1 0 0 0 1 0"/>
<feBlend mode="normal" in2="shape" result="effect1_innerShadow_1_238"/>
</filter>
<filter id="filter5_i_1_238" x="549.112" y="173.368" width="145.571" height="123.914" filterUnits="userSpaceOnUse" color-interpolation-filters="sRGB">
<feFlood flood-opacity="0" result="BackgroundImageFix"/>
<feBlend mode="normal" in="SourceGraphic" in2="BackgroundImageFix" result="shape"/>
<feColorMatrix in="SourceAlpha" type="matrix" values="0 0 0 0 0 0 0 0 0 0 0 0 0 0 0 0 0 0 127 0" result="hardAlpha"/>
<feOffset dx="-13.4413" dy="-19.2088"/>
<feGaussianBlur stdDeviation="5.13212"/>
<feComposite in2="hardAlpha" operator="arithmetic" k2="-1" k3="1"/>
<feColorMatrix type="matrix" values="0 0 0 0 0.580392 0 0 0 0 0.67451 0 0 0 0 0.854902 0 0 0 0.43 0"/>
<feBlend mode="normal" in2="shape" result="effect1_innerShadow_1_238"/>
</filter>
<filter id="filter6_i_1_238" x="498.722" y="233.807" width="115.541" height="139.473" filterUnits="userSpaceOnUse" color-interpolation-filters="sRGB">
<feFlood flood-opacity="0" result="BackgroundImageFix"/>
<feBlend mode="normal" in="SourceGraphic" in2="BackgroundImageFix" result="shape"/>
<feColorMatrix in="SourceAlpha" type="matrix" values="0 0 0 0 0 0 0 0 0 0 0 0 0 0 0 0 0 0 127 0" result="hardAlpha"/>
<feOffset dx="-7.28272" dy="-12.1704"/>
<feGaussianBlur stdDeviation="5.13212"/>
<feComposite in2="hardAlpha" operator="arithmetic" k2="-1" k3="1"/>
<feColorMatrix type="matrix" values="0 0 0 0 0.580392 0 0 0 0 0.67451 0 0 0 0 0.854902 0 0 0 0.43 0"/>
<feBlend mode="normal" in2="shape" result="effect1_innerShadow_1_238"/>
</filter>
<filter id="filter7_i_1_238" x="429.756" y="294.561" width="118.522" height="135.417" filterUnits="userSpaceOnUse" color-interpolation-filters="sRGB">
<feFlood flood-opacity="0" result="BackgroundImageFix"/>
<feBlend mode="normal" in="SourceGraphic" in2="BackgroundImageFix" result="shape"/>
<feColorMatrix in="SourceAlpha" type="matrix" values="0 0 0 0 0 0 0 0 0 0 0 0 0 0 0 0 0 0 127 0" result="hardAlpha"/>
<feOffset dx="-12.1704" dy="-6.20742"/>
<feGaussianBlur stdDeviation="5.13212"/>
<feComposite in2="hardAlpha" operator="arithmetic" k2="-1" k3="1"/>
<feColorMatrix type="matrix" values="0 0 0 0 0.580392 0 0 0 0 0.67451 0 0 0 0 0.854902 0 0 0 0.43 0"/>
<feBlend mode="normal" in2="shape" result="effect1_innerShadow_1_238"/>
</filter>
<filter id="filter8_i_1_238" x="312.011" y="319.831" width="113.097" height="135.368" filterUnits="userSpaceOnUse" color-interpolation-filters="sRGB">
<feFlood flood-opacity="0" result="BackgroundImageFix"/>
<feBlend mode="normal" in="SourceGraphic" in2="BackgroundImageFix" result="shape"/>
<feColorMatrix in="SourceAlpha" type="matrix" values="0 0 0 0 0 0 0 0 0 0 0 0 0 0 0 0 0 0 127 0" result="hardAlpha"/>
<feOffset dx="-4.83885" dy="6.15854"/>
<feGaussianBlur stdDeviation="5.13212"/>
<feComposite in2="hardAlpha" operator="arithmetic" k2="-1" k3="1"/>
<feColorMatrix type="matrix" values="0 0 0 0 0.580392 0 0 0 0 0.67451 0 0 0 0 0.854902 0 0 0 0.43 0"/>
<feBlend mode="normal" in2="shape" result="effect1_innerShadow_1_238"/>
</filter>
<filter id="filter9_i_1_238" x="365.126" y="330.428" width="110.546" height="79.4089" filterUnits="userSpaceOnUse" color-interpolation-filters="sRGB">
<feFlood flood-opacity="0" result="BackgroundImageFix"/>
<feBlend mode="normal" in="SourceGraphic" in2="BackgroundImageFix" result="shape"/>
<feColorMatrix in="SourceAlpha" type="matrix" values="0 0 0 0 0 0 0 0 0 0 0 0 0 0 0 0 0 0 127 0" result="hardAlpha"/>
<feOffset dx="-9.18893" dy="1.27081"/>
<feGaussianBlur stdDeviation="5.13212"/>
<feComposite in2="hardAlpha" operator="arithmetic" k2="-1" k3="1"/>
<feColorMatrix type="matrix" values="0 0 0 0 0.580392 0 0 0 0 0.67451 0 0 0 0 0.854902 0 0 0 0.43 0"/>
<feBlend mode="normal" in2="shape" result="effect1_innerShadow_1_238"/>
</filter>
<filter id="filter10_i_1_238" x="634.143" y="295.201" width="37.6095" height="94.3332" filterUnits="userSpaceOnUse" color-interpolation-filters="sRGB">
<feFlood flood-opacity="0" result="BackgroundImageFix"/>
<feBlend mode="normal" in="SourceGraphic" in2="BackgroundImageFix" result="shape"/>
<feColorMatrix in="SourceAlpha" type="matrix" values="0 0 0 0 0 0 0 0 0 0 0 0 0 0 0 0 0 0 127 0" result="hardAlpha"/>
<feOffset dy="-4.88773"/>
<feGaussianBlur stdDeviation="3.17702"/>
<feComposite in2="hardAlpha" operator="arithmetic" k2="-1" k3="1"/>
<feColorMatrix type="matrix" values="0 0 0 0 0.221483 0 0 0 0 0.77854 0 0 0 0 0.47323 0 0 0 1 0"/>
<feBlend mode="normal" in2="shape" result="effect1_innerShadow_1_238"/>
</filter>
<filter id="filter11_i_1_238" x="640.906" y="339.066" width="53.5654" height="62.8865" filterUnits="userSpaceOnUse" color-interpolation-filters="sRGB">
<feFlood flood-opacity="0" result="BackgroundImageFix"/>
<feBlend mode="normal" in="SourceGraphic" in2="BackgroundImageFix" result="shape"/>
<feColorMatrix in="SourceAlpha" type="matrix" values="0 0 0 0 0 0 0 0 0 0 0 0 0 0 0 0 0 0 127 0" result="hardAlpha"/>
<feOffset dy="-4.88773"/>
<feGaussianBlur stdDeviation="3.17702"/>
<feComposite in2="hardAlpha" operator="arithmetic" k2="-1" k3="1"/>
<feColorMatrix type="matrix" values="0 0 0 0 0.221483 0 0 0 0 0.77854 0 0 0 0 0.47323 0 0 0 1 0"/>
<feBlend mode="normal" in2="shape" result="effect1_innerShadow_1_238"/>
</filter>
<filter id="filter12_i_1_238" x="591.182" y="333.721" width="46.0886" height="69.4152" filterUnits="userSpaceOnUse" color-interpolation-filters="sRGB">
<feFlood flood-opacity="0" result="BackgroundImageFix"/>
<feBlend mode="normal" in="SourceGraphic" in2="BackgroundImageFix" result="shape"/>
<feColorMatrix in="SourceAlpha" type="matrix" values="0 0 0 0 0 0 0 0 0 0 0 0 0 0 0 0 0 0 127 0" result="hardAlpha"/>
<feOffset dy="-4.88773"/>
<feGaussianBlur stdDeviation="3.17702"/>
<feComposite in2="hardAlpha" operator="arithmetic" k2="-1" k3="1"/>
<feColorMatrix type="matrix" values="0 0 0 0 0.221483 0 0 0 0 0.77854 0 0 0 0 0.47323 0 0 0 1 0"/>
<feBlend mode="normal" in2="shape" result="effect1_innerShadow_1_238"/>
</filter>
<linearGradient id="paint0_linear_1_238" x1="-28.6064" y1="477.215" x2="-97.3044" y2="2.87495" gradientUnits="userSpaceOnUse">
<stop stop-color="#ECF2FC"/>
<stop offset="1" stop-color="#B9CFF7"/>
</linearGradient>
<linearGradient id="paint1_linear_1_238" x1="7.03666" y1="294.151" x2="38.5278" y2="242.585" gradientUnits="userSpaceOnUse">
<stop stop-color="#367ED7"/>
<stop offset="1" stop-color="#153D8E"/>
</linearGradient>
<linearGradient id="paint2_linear_1_238" x1="77.0482" y1="267.111" x2="91.8087" y2="306.183" gradientUnits="userSpaceOnUse">
<stop stop-color="#CBDAF1"/>
<stop offset="1" stop-color="#9CB3DF"/>
</linearGradient>
<linearGradient id="paint3_linear_1_238" x1="192.567" y1="259.995" x2="126.993" y2="249.736" gradientUnits="userSpaceOnUse">
<stop stop-color="#FDAE6B"/>
<stop offset="1" stop-color="#FAE539"/>
</linearGradient>
<radialGradient id="paint4_radial_1_238" cx="0" cy="0" r="1" gradientUnits="userSpaceOnUse" gradientTransform="translate(503.126 404.034) rotate(90) scale(35.8426 578.761)">
<stop/>
<stop offset="1" stop-color="#2062E7"/>
</radialGradient>
<radialGradient id="paint5_radial_1_238" cx="0" cy="0" r="1" gradientUnits="userSpaceOnUse" gradientTransform="translate(551.844 278.833) rotate(-112.233) scale(122.731 215.279)">
<stop stop-color="#62ABFB"/>
<stop offset="1" stop-color="#1440C0"/>
</radialGradient>
<radialGradient id="paint6_radial_1_238" cx="0" cy="0" r="1" gradientUnits="userSpaceOnUse" gradientTransform="translate(490.947 208.185) rotate(71.5337) scale(129.572 595.244)">
<stop stop-color="#F4F8FF"/>
<stop offset="1" stop-color="#89B1E9"/>
</radialGradient>
<linearGradient id="paint7_linear_1_238" x1="309.753" y1="404.635" x2="314.733" y2="441.945" gradientUnits="userSpaceOnUse">
<stop stop-color="#9ABFFF"/>
<stop offset="1" stop-color="#5B87D2"/>
</linearGradient>
<linearGradient id="paint8_linear_1_238" x1="312.016" y1="261.532" x2="316.944" y2="308.729" gradientUnits="userSpaceOnUse">
<stop stop-color="#91BAFF"/>
<stop offset="1" stop-color="#5B87D2"/>
</linearGradient>
<linearGradient id="paint9_linear_1_238" x1="475.452" y1="131.656" x2="519.803" y2="182.144" gradientUnits="userSpaceOnUse">
<stop stop-color="#F5F8FF"/>
<stop offset="1" stop-color="white"/>
</linearGradient>
<linearGradient id="paint10_linear_1_238" x1="482.353" y1="188.442" x2="464.305" y2="139.405" gradientUnits="userSpaceOnUse">
<stop stop-color="#6B86C0"/>
<stop offset="1" stop-color="#A1B8E3"/>
</linearGradient>
<linearGradient id="paint11_linear_1_238" x1="382.279" y1="376.012" x2="326.474" y2="319.676" gradientUnits="userSpaceOnUse">
<stop stop-color="#002383"/>
<stop offset="1" stop-color="#316EEA"/>
</linearGradient>
<linearGradient id="paint12_linear_1_238" x1="370.518" y1="353.577" x2="336.546" y2="321.519" gradientUnits="userSpaceOnUse">
<stop stop-color="#002343"/>
<stop offset="1" stop-color="#1A72FF" stop-opacity="0.436934"/>
</linearGradient>
<linearGradient id="paint13_linear_1_238" x1="543.244" y1="181.28" x2="543.244" y2="222.463" gradientUnits="userSpaceOnUse">
<stop stop-color="#6081C1"/>
<stop offset="1" stop-color="#90AADB"/>
</linearGradient>
<linearGradient id="paint14_linear_1_238" x1="460.488" y1="289.947" x2="470.538" y2="261.257" gradientUnits="userSpaceOnUse">
<stop stop-color="#B1C2E4"/>
<stop offset="1" stop-color="white" stop-opacity="0.01"/>
</linearGradient>
<linearGradient id="paint15_linear_1_238" x1="451.035" y1="237.823" x2="437.548" y2="290.212" gradientUnits="userSpaceOnUse">
<stop stop-color="#3D9BF8"/>
<stop offset="1" stop-color="#3B80F0"/>
</linearGradient>
<linearGradient id="paint16_linear_1_238" x1="501.966" y1="136.969" x2="543.661" y2="158.898" gradientUnits="userSpaceOnUse">
<stop stop-color="white"/>
<stop offset="0.701101" stop-color="#B8CBEB"/>
<stop offset="1" stop-color="#A1B8E3"/>
</linearGradient>
<linearGradient id="paint17_linear_1_238" x1="539.229" y1="195.437" x2="537.877" y2="165.197" gradientUnits="userSpaceOnUse">
<stop stop-color="#7992C7"/>
<stop offset="1" stop-color="#A1B8E3"/>
</linearGradient>
<linearGradient id="paint18_linear_1_238" x1="502.143" y1="68.5462" x2="574.444" y2="86.3231" gradientUnits="userSpaceOnUse">
<stop stop-color="#2669E1"/>
<stop offset="1" stop-color="#143B8C"/>
</linearGradient>
<linearGradient id="paint19_linear_1_238" x1="541.559" y1="214.156" x2="532.123" y2="208.124" gradientUnits="userSpaceOnUse">
<stop stop-color="#EEF5FF"/>
<stop offset="1" stop-color="#ADC8F2"/>
</linearGradient>
<linearGradient id="paint20_linear_1_238" x1="586.645" y1="167.368" x2="611.622" y2="220.421" gradientUnits="userSpaceOnUse">
<stop stop-color="#F5F8FF"/>
<stop offset="1" stop-color="white"/>
</linearGradient>
<linearGradient id="paint21_linear_1_238" x1="501.045" y1="218.338" x2="507.272" y2="242.226" gradientUnits="userSpaceOnUse">
<stop stop-color="#EEF5FF"/>
<stop offset="1" stop-color="#D9E8FF"/>
</linearGradient>
<linearGradient id="paint22_linear_1_238" x1="584.995" y1="421.895" x2="619.019" y2="384.022" gradientUnits="userSpaceOnUse">
<stop stop-color="#CEE0FB"/>
<stop offset="1" stop-color="#E4EDFB"/>
</linearGradient>
<linearGradient id="paint23_linear_1_238" x1="671.264" y1="388.067" x2="671.264" y2="404.197" gradientUnits="userSpaceOnUse">
<stop stop-color="#99BAE9"/>
<stop offset="1" stop-color="#BCD0F2"/>
</linearGradient>
<linearGradient id="paint24_linear_1_238" x1="678.133" y1="324.352" x2="625.601" y2="379.357" gradientUnits="userSpaceOnUse">
<stop stop-color="#B1FFBE"/>
<stop offset="0.444207" stop-color="#5CDB8E"/>
<stop offset="1" stop-color="#149654"/>
</linearGradient>
<linearGradient id="paint25_linear_1_238" x1="678.897" y1="341.06" x2="671.344" y2="399.431" gradientUnits="userSpaceOnUse">
<stop stop-color="#B1FFBE"/>
<stop offset="0.444207" stop-color="#5CDB8E"/>
<stop offset="1" stop-color="#149654"/>
</linearGradient>
<linearGradient id="paint26_linear_1_238" x1="645.414" y1="355.689" x2="610.82" y2="409.984" gradientUnits="userSpaceOnUse">
<stop stop-color="#B1FFBE"/>
<stop offset="0.444207" stop-color="#5CDB8E"/>
<stop offset="1" stop-color="#149654"/>
</linearGradient>
<linearGradient id="paint27_linear_1_238" x1="652.291" y1="52.4325" x2="670.48" y2="88.2265" gradientUnits="userSpaceOnUse">
<stop stop-color="#CBDAF1"/>
<stop offset="1" stop-color="#9CB3DF"/>
</linearGradient>
</defs>
</svg>
